<?xml version="1.0" encoding="utf-8"?>
<!-- Generator: Adobe Illustrator 27.1.1, SVG Export Plug-In . SVG Version: 6.00 Build 0)  -->
<svg version="1.1" id="레이어_1" xmlns="http://www.w3.org/2000/svg" xmlns:xlink="http://www.w3.org/1999/xlink" x="0px"
	 y="0px" viewBox="0 0 250 250" style="enable-background:new 0 0 250 250;" xml:space="preserve">
<g>
	<path d="M181.9,240.69c-39.24,8.58-80.76,6.47-118.93-6.05c-16.14-5.29-32.3-12.88-42.83-26.21c-9.1-11.52-13.13-26.3-14.69-40.9
		c-2.34-21.9,0.38-44.02,4.15-65.72c2.68-15.42,5.94-30.88,12.23-45.22S37.7,29.01,50.88,20.56c11.02-7.06,23.98-10.44,36.85-12.9
		c17.17-3.27,34.91-5.07,52.08-1.83c16.74,3.17,32.19,10.97,47.23,18.95c10.93,5.8,22.01,11.91,30.28,21.11
		c16.19,18.02,18.64,44.03,22.51,67.94c3.63,22.41,9.15,45.71,2.37,67.37c-7.72,24.67-17.35,42.37-41.17,52.42
		C189.12,238.66,192.92,238.13,181.9,240.69"/>
</g>
</svg>
