<?xml version="1.0" encoding="utf-8"?>
<!-- Generator: Adobe Illustrator 27.2.0, SVG Export Plug-In . SVG Version: 6.00 Build 0)  -->
<svg version="1.1" id="_레이어_1" xmlns="http://www.w3.org/2000/svg" xmlns:xlink="http://www.w3.org/1999/xlink" x="0px"
	 y="0px" viewBox="0 0 1459 514.8" style="enable-background:new 0 0 1459 514.8;" xml:space="preserve">
<g>
	<g>
		<path d="M112.2,403.1c17.2,10.8,19.2,32.4,9.8,49.2c-6.2,11.2-13.7,16.2-20.3,18c-0.1,0.1-0.1,0.2-0.2,0.3
			c2.8,1.4,4.2,2.2,6.9,3.6c-2.9,5.7-4.3,8.5-7.1,14.3c-26.6-13.1-53.2-26.2-79.8-39.4c3.2-6.4,4.8-9.6,8-16
			c9.7,5.1,19.5,10.1,29.2,15.2c0.1-0.1,0.1-0.2,0.2-0.3c-2.5-9.7,0-20.1,4.8-28.6C73.4,402.3,93.9,391.6,112.2,403.1L112.2,403.1z
			 M103.4,417.7c-11.8-7.1-25-2.4-32.1,9.2c-7.1,11.7-2.6,26.4,9.1,32.5c11.2,5.8,25.7,2.2,31.6-9.7
			C117.9,437.7,114.7,424.5,103.4,417.7z"/>
		<path d="M165.9,332.2c-12.9,16.5-25.2,33.4-37,50.8c10.8,6.7,23.7,1.3,30.4-8.5c7.8-11.4,5.8-20,3.4-23.7c3.8-5,5.7-7.5,9.6-12.4
			c8.3,13.3,3.3,30.5-5.2,42.2c-11.4,15.6-31.8,26.1-50,14.4c-19.3-12.4-15.7-37.2-4-53.5c11.4-15.9,32-26.3,49.3-12.2
			C163.7,330.3,165.2,331.5,165.9,332.2L165.9,332.2z M148.5,339.1c-9.8-7.2-21.8,0.2-27.7,8.5c-6.1,8.7-8.9,22.1,0.2,30
			C129.8,364.6,138.9,351.7,148.5,339.1L148.5,339.1z"/>
		<path d="M180.8,332.6c-12.6-10.2-1.3-28.8,5.6-39.1c7.1-10.5,11.5-17.1,7.1-21.2c-3.3-3.1-8.5-3.2-16.7,5.8
			c-9.6,10.6-9.9,16.3-4.1,22.3c-4.2,4.9-6.2,7.3-10.3,12.3c-13.2-13.2-1.4-30.4,7.7-41.6c8.5-10.5,25-19.2,36.5-7.3
			c6.8,6.7,13.6,13.3,20.4,20c3.2,3.2,5.4,4.2,7.4,2.2c0.3-0.3,0.6-0.6,1.2-1.4c2.1,2.1,3.1,3.1,5.2,5.1c-1.4,2.1-3,4.1-4.7,5.8
			c-5.1,5.2-9.4,6.5-15.2,2.3c-0.1,0.1-0.1,0.1-0.2,0.2c1.4,9.9-3.8,19.4-9.8,26.6C203.9,332.8,190.6,340.6,180.8,332.6L180.8,332.6
			z M209.6,287.4c-2.6-2.5-3.9-3.7-6.5-6.1c-0.4,3.1-4.1,9-8.5,15.9c-7.7,11.9-9.2,18.5-4.3,22.7c4.5,3.8,9.4,2.6,15.6-4.2
			C212.6,308.4,218.3,295.8,209.6,287.4L209.6,287.4z"/>
		<path d="M246.2,200.9c4.8-4,7.2-5.9,12-9.8c13.1,15.9,26.1,31.8,39.2,47.7c-4.5,3.6-6.7,5.4-11,9.1c-2-2.4-3-3.5-5-5.9
			c-0.1,0.1-0.1,0.1-0.2,0.2c0,6.2-3.3,14.7-12.4,23.4c-9,8.6-23.2,11.6-32.8,2.3c-10-10.3-20-20.5-30.1-30.8
			c4.5-4.4,6.8-6.5,11.4-10.8c9.1,9.6,18.1,19.3,27.2,28.9c5.8,6.1,12.8,6.8,21-0.3c7-6.1,12.3-16.9,5.4-25.2L246.2,200.9
			L246.2,200.9z"/>
		<path d="M351.1,163.1c9.8,15.1,4.8,35.5-10,45.2c-9.4,6.2-17.8,7.3-24.1,5.8c-0.1,0.1-0.1,0.1-0.2,0.2
			c5.8,7.7,11.7,15.4,17.5,23.1c-4.4,3.3-6.6,5-11,8.4c-17.1-21.8-34.2-43.6-51.4-65.3c4.9-3.8,7.4-5.6,12.3-9.2
			c1.8,2.3,2.6,3.5,4.4,5.8c0.1-0.1,0.1-0.1,0.2-0.2c0.9-6,4.4-14.4,14.7-21.4C319.2,144.5,340.3,146.5,351.1,163.1L351.1,163.1z
			 M338,171.4c-7.4-10.6-20-13.9-30.9-6.6c-10.9,7.4-12.1,20.6-4.3,30.9c7.5,9.9,19.9,13.2,30.6,6C344,194.7,344.9,181.3,338,171.4
			L338,171.4z"/>
		<path d="M339.1,121.8c-2.7-4.3-4-6.5-6.7-10.8c6.1-3.6,9.2-5.4,15.3-8.8c2.6,4.4,3.9,6.6,6.5,10.9
			C348.1,116.5,345.1,118.3,339.1,121.8L339.1,121.8z M378,182.6c-10.8-17.3-21.5-34.6-32.3-52c5.2-3.1,7.9-4.6,13.1-7.6
			c10.4,17.5,20.9,35,31.3,52.5C385.2,178.3,382.8,179.8,378,182.6z"/>
		<path d="M442.2,102.5l17.6,38.2c-5.1,2.2-7.6,3.3-12.7,5.6l-17-35c-3.5-7.3-10.2-10.1-20.3-5.6c-8.4,3.8-16.7,13.1-11.6,22.8
			l17.8,32.9c-5,2.6-7.4,3.9-12.4,6.5c-10-17.7-20.1-35.4-30.1-53.1c5.3-2.9,8-4.3,13.4-7c1.5,2.7,2.2,4,3.6,6.7
			c0.1-0.1,0.2-0.1,0.3-0.1c2.4-9.2,10.5-15.9,18.8-19.7C421.5,89.4,435.9,89.5,442.2,102.5L442.2,102.5z"/>
		<path d="M527.3,87.3C509,92.9,491,99.1,473,105.9c4.9,10.8,17.4,14.2,28,10.3c11.9-4.4,14.6-12.2,14.5-16.4
			c5.5-1.8,8.3-2.7,13.8-4.3c-0.5,15-11.7,24.7-25.1,29.6c-17.8,6.5-38.1,1.6-46.2-16.7c-8.6-19.3,5.2-36.7,23.2-43
			c17.7-6.2,38.5-2,44.9,17.6C526.5,84.6,527.1,86.3,527.3,87.3L527.3,87.3z M510.1,83.1c-4-10.6-16.7-11.9-26-8.7
			c-9.4,3.3-17.9,12.4-14.6,23.1C483,92.4,496.5,87.6,510.1,83.1z"/>
		<path d="M575,92.6c1,3.6,1.5,5.4,2.4,8.9c-3.3,1.4-5.5,2-8.3,2.8c-10.9,2.9-20.1-0.4-23.6-12c-3.3-10.7-6.6-21.3-10-32
			c-4.3,1.2-6.4,1.8-10.7,3c-1.2-3.6-1.8-5.4-3-9.1c4.3-1.3,6.5-1.9,10.8-3.1c-2.3-7.4-3.4-11-5.7-18.4c5.9-1.6,8.8-2.4,14.8-3.9
			c2.2,7.4,3.2,11.1,5.4,18.5c5.8-1.5,8.7-2.2,14.5-3.5c1,3.7,1.5,5.5,2.5,9.2c-5.7,1.3-8.6,2-14.3,3.5c3.2,10.8,6.3,21.6,9.4,32.5
			c1.8,6.1,4.2,6.9,10,5.4C571.6,93.9,572.7,93.6,575,92.6L575,92.6z"/>
		<path d="M616,32.1c0.8,4.3,1.3,6.5,2.1,10.7c-1.8,0.1-3.2,0.2-5,0.5c-11,1.7-21,10.8-18.2,22.8c2.3,10,4.7,20,7,30
			c-5.4,1.1-8.1,1.7-13.5,2.9l-14.7-57.8c5.8-1.3,8.7-1.9,14.6-3c1,4.4,1.5,6.6,2.6,11c0.1,0,0.2,0,0.3-0.1
			c2.3-8.1,7.3-14.4,17.6-16.2C611.6,32.5,613.7,32.2,616,32.1L616,32.1z"/>
		<path d="M696.2,56.9c-19,1.4-37.8,3.3-56.7,5.8c2.4,11.5,13.7,17.5,24.8,16.1c12.5-1.6,16.8-8.4,17.7-12.4
			c5.7-0.5,8.6-0.7,14.3-1.1c-3.9,14.3-17,21-31,22.7c-18.5,2.3-37.1-6.8-40.9-26.2c-4-20.5,13.5-33.9,32-35.9
			c18.3-2,37.7,6.4,39.5,26.8C696,54.2,696.2,55.9,696.2,56.9L696.2,56.9z M680.5,49.1C679,38,666.9,34,657.2,35.1
			c-9.7,1.1-20.1,7.8-19.3,18.8C652.1,52,666.3,50.4,680.5,49.1L680.5,49.1z"/>
		<path d="M776.2,56c-19-0.6-37.9-0.7-57-0.2c1.2,11.6,11.8,18.6,22.9,18.4c12.6-0.3,17.6-6.5,18.9-10.4c5.8,0.1,8.6,0.2,14.4,0.4
			c-5.4,13.8-19.2,18.9-33.2,19.2c-18.5,0.3-36.2-10.4-37.9-30.1c-1.8-20.8,17.1-32,35.6-32.1c18.3,0,36.8,10.1,36.4,30.5
			C776.3,53.3,776.3,55,776.2,56L776.2,56z M761.4,46.7c-0.4-11.1-12-16.3-21.6-16.3c-9.7,0-20.7,5.5-21.2,16.5
			C732.9,46.5,747.2,46.5,761.4,46.7L761.4,46.7z"/>
		<path d="M784.8,48.9c0.8-34,38-44.8,65.5-41.7c26.1,2.9,58.6,22.1,53.6,53.8c-2.5,15.7-15.7,24.8-30.8,22.3
			c-8.9-1.4-14-5.7-16.7-12.2c-0.1,0-0.2,0-0.3,0c-4.2,4.9-11,7.3-20.7,6.4c-13.1-1.2-23-13.2-22.2-25.8c0.9-14.4,15.1-25.2,29.8-23
			c9.5,1.5,17,6.7,19,12.1c0.1,0,0.2,0,0.3,0c1-3.3,1.5-4.9,2.5-8.2c5,0.8,7.5,1.2,12.6,2.1c-2.9,9.1-5.8,18.2-8.6,27.4
			c-2.3,7.3,0,12,6.9,13.2c8.4,1.5,14.9-3.9,17-16.4c4.3-25.4-21.8-41.4-43-43.3c-22.2-2-52.3,5.6-53.4,34
			c-0.9,24.6,22.2,38.9,43.9,41.6c8.2,1,16.4,1.4,24.9,0.1c1.1,3,1.7,4.5,2.8,7.6c-8.8,2.4-19.8,1.9-28.5,0.7
			C812.7,96,784.1,78.5,784.8,48.9L784.8,48.9z M857.6,53.9c1.1-9.2-4.7-14.8-13.1-15.9c-11.6-1.5-18.3,5.4-19,15.2
			c-0.6,8.1,3.2,14.4,13.2,15.6C849.8,70.2,856.5,63.3,857.6,53.9z"/>
		<path d="M973.3,57.7c5.7,1.8,8.6,2.7,14.2,4.5c-5,16.8-9.9,33.6-14.9,50.4c-4.6,17.4-24.3,18.4-38.5,14.6
			c-11.5-3.1-27-11.3-26.9-25.4c5.6,1.3,8.4,1.9,13.9,3.3c0.3,5.4,4.5,10.1,15.1,13.4c8.9,2.8,20.5,1.5,22.9-9.4
			c0.8-3,1.2-4.5,2-7.4c-0.1,0-0.2-0.1-0.3-0.1c-5,3.3-12.5,5.1-23.6,2.2c-15.3-4-28.6-18.8-25.5-35.2c3.3-17.4,23.2-23.7,38.6-19.3
			c12,3.4,17.8,9.7,20.8,14.8c0.1,0,0.2,0.1,0.3,0.1L973.3,57.7L973.3,57.7z M966.2,83.1c3.1-11.3-4.7-21.1-15.3-24.1
			c-10.5-2.9-22.1,1.7-24.5,13.1c-2.3,11,5.2,20.7,15.6,23.6C952.3,98.5,963.3,93.9,966.2,83.1z"/>
		<path d="M1095.6,126.5c-5.7,11.7-11.3,23.4-17,35.2c-5-2.6-7.5-3.8-12.5-6.3c5-10.9,10.1-21.9,15.1-32.8
			c3.1-6.8,3.4-12.5-6.9-17.4c-10-4.8-18.6-2.3-21.8,5.6c-4.4,10.7-8.8,21.4-13.2,32.1c-5.1-2.2-7.7-3.4-12.8-5.5
			c4.4-11.3,8.7-22.6,13.1-33.9c2.7-7,2.6-12.7-7.9-16.9c-10.3-4.1-18.6-1.1-21.4,7c-3.8,11-7.5,22-11.2,33c-5.2-1.9-7.8-2.9-13-4.7
			c5.8-18.1,11.5-36.2,17.3-54.2c5.6,2,8.5,3,14.1,5.1c-0.9,2.7-1.4,4.1-2.3,6.8c0.1,0,0.2,0.1,0.3,0.1c5.2-2.7,13.4-4.4,24.4,0.1
			c10.1,4.1,15,10.2,15.4,17.3c0.1,0.1,0.2,0.1,0.3,0.1c7.2-2.8,16.2-3.6,27,1.7C1093.4,104.1,1101.4,114.3,1095.6,126.5
			L1095.6,126.5z"/>
		<path d="M1095.3,154c6.5-12.8,26.2-5.7,36.3-1.1c10.8,4.9,17.9,7.9,20.7,3.1c2.1-3.5,1-8.3-8.9-14.3c-11.7-7.1-16.8-6.4-21-0.2
			c-5.2-3-7.9-4.5-13.2-7.4c9-13.8,28-6.5,38.9,0.4c10.8,6.8,22.7,18.7,14.7,32.2l-13.5,21.7c-2.1,3.4-2.6,5.6-0.3,7.1
			c0.4,0.2,0.7,0.5,1.5,0.9c-1.4,2.2-2.1,3.3-3.5,5.5c-2.3-1-4.4-2.2-6.4-3.4c-5.9-3.9-8-7.6-5.5-13.6c-0.1-0.1-0.2-0.1-0.2-0.2
			c-7,2.4-16,0.9-26.1-4.9C1100.2,175.2,1090.1,164.3,1095.3,154L1095.3,154z M1142.3,173c1.6-2.8,2.4-4.1,4.1-6.9
			c-2.9,0.1-9.1-2.3-16.3-5.3c-12.4-5.1-18.6-5.4-21.4-0.3c-2.5,4.7-0.3,8.9,7.1,13.5C1123.5,178.8,1136.3,182.6,1142.3,173
			L1142.3,173z"/>
		<path d="M1192.2,153.6c2.5-3.9,3.8-5.8,6.3-9.7c5.8,4.1,8.7,6.2,14.5,10.4c-2.6,3.8-3.9,5.7-6.5,9.5
			C1200.8,159.6,1197.9,157.6,1192.2,153.6L1192.2,153.6z M1157,208.9c10.2-15.5,20.3-31,30.5-46.5c5,3.5,7.5,5.3,12.5,8.9
			c-10.4,15.3-20.9,30.5-31.4,45.8C1164,213.8,1161.7,212.2,1157,208.9z"/>
		<path d="M1181.4,226.7c15.1-21,30.2-42.1,45.3-63.1c5,3.9,7.5,5.8,12.5,9.8c-15.5,20.7-31,41.3-46.5,62
			C1188.2,231.9,1186,230.2,1181.4,226.7L1181.4,226.7z"/>
		<path d="M1204.1,244.7c2.9-3.7,4.4-5.6,7.3-9.3c5,4.2,7.5,6.3,12.4,10.6c-3,3.6-4.5,5.5-7.5,9.1
			C1211.5,250.9,1209,248.8,1204.1,244.7L1204.1,244.7z"/>
		<path d="M1240.5,239.8c13.4-16.1,35.6-6.6,47.8,5.3c9.9,9.7,20,28.6,10.3,41.8c-4.3-4.7-6.5-7.1-10.8-11.7
			c3.4-4.6,4.6-13.2-5.3-23.7c-8.3-8.8-22-10.8-30.4-1.2c-8.1,9.3-5.9,22.5,2.8,30.7c10,9.5,17.8,8.4,22.7,4.5
			c4.3,4.5,6.4,6.8,10.7,11.4c-13.2,9.2-29.3,0.3-39.4-9.5C1236.3,275.4,1227.9,255,1240.5,239.8L1240.5,239.8z"/>
		<path d="M1298.7,298c15.8-15,37.3-1.3,48.1,12.3c10.8,13.6,19.8,38,2.6,51c-16.3,12.3-36-0.9-46.6-14
			C1291.9,333.8,1283.9,312.1,1298.7,298L1298.7,298z M1339.6,348.1c10.7-8.4,7.7-22.2,0.5-32.1c-7.2-9.9-21.3-14.6-30.8-5.9
			c-9.2,8.4-7.7,22.6,0.2,31.7C1317.2,350.8,1329.3,356.2,1339.6,348.1L1339.6,348.1z"/>
		<path d="M1425.4,469.8l-33,16.3c-2.8-5.8-4.3-8.6-7.2-14.3c10.1-5.3,20.1-10.5,30.2-15.8c6.3-3.3,9.5-7.8,3.4-19.2
			c-5.9-11.1-14.4-15.2-21.4-11.2c-9.4,5.5-18.8,11.1-28.2,16.6c-3.1-5.5-4.7-8.2-7.9-13.5c9.7-6,19.4-12,29.1-18
			c6.1-3.8,9-8.4,2.3-19.2c-6.5-10.5-15.2-13.9-21.8-9.3c-9,6.2-18.1,12.4-27.1,18.7c-3.4-5.1-5.1-7.7-8.6-12.7l43.6-31.5
			c3.7,5.5,5.6,8.2,9.2,13.8c-2.2,1.5-3.3,2.3-5.5,3.8c0.1,0.1,0.1,0.2,0.2,0.3c5.9,1.5,13.7,5.8,20.6,17.1
			c6.3,10.4,7.2,18.8,3.8,24.8c0.1,0.1,0.1,0.2,0.2,0.3c9.8,3.7,17.2,11.7,21.9,20.8C1434.4,447.9,1438.1,463.2,1425.4,469.8
			L1425.4,469.8z"/>
	</g>
	<g>
		<path d="M285,429.4c11.8,7.5,13.3,24.1,7.1,35.6c-4.4,8.1-9.9,11.8-14.7,13c0,0.1-0.1,0.1-0.1,0.2c2,1,3,1.6,5,2.6
			c-2.1,4.1-3.1,6.2-5.1,10.4c-19.3-9.5-38.6-19-57.8-28.5c2.3-4.7,3.5-7,5.8-11.6c8.5,4.4,12.7,6.6,21.2,11
			c0.1-0.1,0.1-0.1,0.1-0.2c-1.3-4.6-1.5-12,3.4-20.7C256.5,429.6,272.4,421.4,285,429.4L285,429.4z M278.6,439.9
			c-7.7-4.6-17.4-3.9-23.2,6.6c-5.3,9.6-2.6,18.7,6.6,23.6c9.2,4.8,17.9,2,22.9-7.1C290.3,453.1,286.3,444.5,278.6,439.9z"/>
		<path d="M323.9,378c-9.3,12-18.2,24.2-26.8,36.8c6.4,4.1,15.4,3.2,22-6.1c5.9-8.3,4.2-14.5,2.4-17.2c2.8-3.6,4.1-5.4,7-9
			c6.1,9.8,2.1,22-3.8,30.6c-7.9,11.5-23.9,18.3-36.2,10.5c-13.5-8.6-11.8-26.6-2.9-38.7c7.9-10.8,23.9-19.1,35.8-8.9
			C322.3,376.6,323.4,377.5,323.9,378L323.9,378z M311.3,383c-5.7-4.3-14-2.3-20.1,6.2c-5.8,8-5.6,16.9,0.2,21.7
			C297.9,401.5,304.5,392.2,311.3,383L311.3,383z"/>
		<path d="M334.7,378.3c-9.1-7.6-1-21.1,4.1-28.4c5.2-7.4,8.4-12.4,5.1-15.4c-2.4-2.2-6.2-2.3-12.1,4.2c-7,7.7-7.1,11.8-3,16.2
			c-3,3.5-4.5,5.3-7.5,8.9c-8.9-8.8-1.1-23,5.6-30.1c6.4-6.9,18-13.9,26.5-5.3c5.9,5.8,8.9,8.7,14.8,14.5c2.3,2.3,3.9,3.1,5.4,1.6
			c0.2-0.2,0.5-0.5,0.9-1c1.5,1.5,2.3,2.2,3.8,3.7c-1,1.5-2.2,3-3.4,4.2c-3.7,3.8-6.8,4.7-11,1.7c-0.1,0.1-0.1,0.1-0.1,0.2
			c0.9,5.9-1.2,12.4-7.1,19.2C349.2,380.9,340.6,383.2,334.7,378.3L334.7,378.3z M355.6,345.5c-1.9-1.8-2.8-2.7-4.7-4.4
			c-0.3,2.2-3,6.6-6.2,11.5c-5.6,8.6-6.7,13.4-3.1,16.5c3.2,2.8,6.8,2,11.3-3C359.3,358.7,361.3,350.8,355.6,345.5L355.6,345.5z"/>
		<path d="M382.1,282.8c3.5-2.9,5.2-4.3,8.7-7.1c9.5,11.5,19,23.1,28.4,34.6c-3.2,2.6-4.8,3.9-8,6.6c-1.5-1.7-2.2-2.6-3.7-4.3
			c-0.1,0.1-0.1,0.1-0.2,0.1c0,4.5-2,10.7-9,17c-7.4,6.7-16.6,9-23.8,1.6c-7.3-7.4-14.5-14.9-21.8-22.3c3.3-3.2,4.9-4.7,8.3-7.8
			c6.6,7,13.1,14,19.7,21c4.2,4.4,9.3,5.1,15.2-0.2c6.8-6,8.3-13.1,3.9-18.3C392.9,295.3,389.3,291.2,382.1,282.8L382.1,282.8z"/>
		<path d="M458.1,255.4c7,10.8,2.9,25.6-7.3,32.8c-6.8,4.8-12.9,5.3-17.4,4.2c-0.1,0-0.1,0.1-0.2,0.1c5.1,6.7,7.6,10.1,12.7,16.8
			c-3.2,2.4-4.8,3.6-8,6c-12.4-15.8-24.8-31.6-37.2-47.4c3.6-2.7,5.3-4,9-6.7c1.3,1.7,1.9,2.5,3.2,4.2c0.1,0,0.1-0.1,0.2-0.1
			c0.6-4.4,3.2-10.6,10.6-15.6C434.4,242.6,450.7,243.8,458.1,255.4L458.1,255.4z M448.7,261.4c-4.9-7.2-13.5-10.9-22.4-4.8
			c-8.1,5.6-9.2,14.3-3.1,22.4c6.1,8,14.5,9.7,22.2,4.4C453.8,277.6,453.6,268.6,448.7,261.4L448.7,261.4z"/>
		<path d="M449.4,225.5c-2-3.1-2.9-4.7-4.9-7.8c4.4-2.6,6.6-3.9,11.1-6.4c1.9,3.2,2.8,4.8,4.7,7.9
			C456,221.6,453.8,222.9,449.4,225.5L449.4,225.5z M477.6,269.5c-7.8-12.6-15.6-25.1-23.4-37.7c3.8-2.2,5.7-3.4,9.5-5.5l22.7,38.1
			C482.9,266.4,481.1,267.4,477.6,269.5L477.6,269.5z"/>
		<path d="M524.2,211.4c4.3,9.2,8.5,18.5,12.8,27.7c-3.7,1.6-5.5,2.4-9.2,4.1c-4.1-8.5-8.2-16.9-12.3-25.4c-2.6-5.3-7.3-7.5-14.7-4
			c-8.4,4-11.6,10.6-8.4,16.5c5.2,9.5,7.8,14.3,12.9,23.8c-3.6,1.9-5.4,2.8-9,4.7c-7.3-12.8-14.5-25.6-21.8-38.5
			c3.9-2.1,5.8-3.1,9.7-5.1c1.1,1.9,1.6,2.9,2.6,4.9c0.1,0,0.1-0.1,0.2-0.1c1-4.3,4.7-10.1,13.6-14.3
			C510.2,201.3,520,202.3,524.2,211.4L524.2,211.4z"/>
		<path d="M585.9,200.4c-13.3,4-26.4,8.5-39.3,13.5c3,6.7,10.5,11,20.3,7.5c8.8-3.1,10.5-8.8,10.5-11.9c4-1.3,6-1.9,10-3.1
			c-0.1,10.7-9.2,18.1-18.2,21.5c-12.4,4.6-28,0.3-33.5-12.1c-5.8-13,3.5-27.1,16.8-31.2c13-4,27.7-1.4,32.6,12.8
			C585.4,198.5,585.8,199.7,585.9,200.4L585.9,200.4z M573.5,197.4c-2.3-6.4-9.9-9.4-18.9-6.3c-8.5,3-12.8,9.8-10.6,16.7
			C553.7,204,563.5,200.5,573.5,197.4z"/>
		<path d="M620.5,204.3c0.7,2.6,1,3.9,1.8,6.5c-2.4,1-3.9,1.5-6,2c-8.3,2.1-14.1,0.9-17.1-8.7c-2.9-9.3-4.3-13.9-7.2-23.2
			c-3.1,0.9-4.7,1.3-7.8,2.2c-0.9-2.6-1.3-3.9-2.2-6.6c3.1-0.9,4.7-1.4,7.9-2.2c-1.7-5.3-2.5-8-4.2-13.4c4.3-1.2,6.4-1.7,10.7-2.8
			c1.6,5.4,2.3,8,3.9,13.4c4.2-1.1,6.3-1.6,10.5-2.6c0.7,2.7,1.1,4,1.8,6.6c-4.2,1-6.2,1.5-10.4,2.6c2.7,9.4,4.1,14.1,6.8,23.5
			c1.3,4.4,3.1,5,7.3,3.9C618,205.2,618.8,204.9,620.5,204.3L620.5,204.3z"/>
		<path d="M650.2,160.4c0.6,3.1,0.9,4.7,1.5,7.8c-1.3,0-2.3,0.1-3.6,0.3c-9.5,1.6-15.1,8.5-13.2,16.5c2,8.7,3.1,13.1,5.1,21.8
			c-3.9,0.8-5.9,1.2-9.8,2.1c-3.5-14-7.1-28-10.7-41.9c4.2-0.9,6.3-1.4,10.6-2.2c0.8,3.2,1.1,4.8,1.9,8c0.1,0,0.1,0,0.2,0
			c1.6-5.9,5.3-10.4,12.8-11.7C647,160.7,648.5,160.5,650.2,160.4L650.2,160.4z"/>
		<path d="M708.3,178.4c-13.7,0.9-27.5,2.3-41.1,4.2c1.4,7,7.6,12.8,18,11.6c9.2-1,12.2-6.1,12.8-9c4.2-0.4,6.2-0.5,10.4-0.8
			c-2.5,10.2-13,15.3-22.4,16.5c-13,1.7-27.1-5.9-29.7-19c-2.7-13.8,9.6-25.1,23.2-26c13.3-0.9,27.1,4.7,28.7,19.4
			C708.2,176.4,708.3,177.7,708.3,178.4L708.3,178.4z M697,172.7c-0.8-6.7-7.4-11.2-16.9-10.2c-8.9,1-14.6,6.6-14,13.6
			C676.3,174.7,686.7,173.6,697,172.7L697,172.7z"/>
		<path d="M766.3,177.7c-13.8-0.6-27.5-0.6-41.3-0.2c0.7,7.1,6.2,13.4,16.6,13.4c9.2-0.1,12.8-4.7,13.7-7.6
			c4.2,0.1,6.2,0.1,10.4,0.3c-3.6,9.9-14.6,13.7-24.1,13.9c-13,0.3-26.3-8.5-27.5-21.8c-1.2-14,12.3-23.7,25.8-23.2
			c13.3,0.5,26.5,7.4,26.4,22.1C766.4,175.8,766.4,177.1,766.3,177.7L766.3,177.7z M755.6,171c-0.1-6.6-6.2-11.8-15.7-11.8
			c-8.9,0-15.2,4.9-15.3,12C734.9,170.8,745.3,170.7,755.6,171L755.6,171z"/>
		<path d="M772.5,172.6c0.5-24.2,28-33.8,47.5-30.2c18.2,3.3,43.1,15,38.8,39c-2,10.9-11.2,18.2-22.3,16.2
			c-6.5-1.2-10.2-4.2-12.1-8.9c-0.1,0-0.1,0-0.2,0c-3,3.5-7.8,5.5-15,4.6c-9.5-1.1-16.7-8-16.1-18.7c0.6-11.2,10.9-18.1,21.6-16.6
			c7,0.9,12.3,4.9,13.8,8.8c0.1,0,0.1,0,0.2,0c0.7-2.4,1.1-3.6,1.8-5.9c3.7,0.6,5.5,0.9,9.1,1.5c-2.5,7.9-3.8,11.9-6.2,19.8
			c-1.7,5.3,0,8.7,5,9.6c6.1,1.1,10.8-2.8,12.3-11.9c3-18-15.9-29.6-31.1-31.4c-16.7-2-37.2,5.4-38.7,24.6
			c-1.4,17.5,16.9,28.3,31.8,30.2c5.9,0.7,11.9,1.1,18.1,0.1c0.8,2.2,1.2,3.3,2,5.5c-6.7,1.7-13.5,1.4-20.7,0.5
			C792.7,207,772.1,194.7,772.5,172.6L772.5,172.6z M825.4,176.2c0.8-6.7-3.4-10.8-9.5-11.6c-8.4-1.1-13.3,3.9-13.8,11.1
			c-0.4,5.8,2.3,10.4,9.6,11.3C819.6,188,824.5,183.1,825.4,176.2z"/>
		<path d="M909.2,179c4.1,1.3,6.2,1.9,10.3,3.3c-3.6,12.2-7.2,24.4-10.8,36.6c-3.8,12.7-17,13.3-27.9,10.6
			c-8.6-2.1-19.8-8-19.5-18.4c4,0.9,6.1,1.4,10.1,2.4c0.2,3.9,2.9,7.5,10.9,9.7c9,2.4,14.5,0.7,16.6-6.8c0.6-2.2,0.9-3.2,1.5-5.4
			c-0.1,0-0.1,0-0.2-0.1c-3.7,2.4-9.1,3.8-17.1,1.6c-11.8-3.2-20.9-13-18.5-25.5c2.4-12.5,16.3-17.6,28-14c8.4,2.6,12.9,7,15.1,10.7
			c0.1,0,0.1,0,0.2,0.1C908.5,181.8,908.7,180.8,909.2,179L909.2,179z M904.1,197.3c2.4-8.8-1.8-14.9-11.1-17.4
			c-10.1-2.8-16.1,1.8-17.8,9.5c-1.7,7.7,1.7,14.4,11.3,17.1C895.3,208.9,901.7,206,904.1,197.3L904.1,197.3z"/>
		<path d="M997.8,228.8c-4.1,8.5-8.2,17-12.3,25.5c-3.6-1.9-5.4-2.8-9-4.6l10.9-23.8c2.3-4.9,2.5-9-5-12.6c-7.3-3.4-13.5-1.7-15.8,4
			c-3.8,9.3-5.7,14-9.5,23.3c-3.7-1.6-5.5-2.4-9.3-4c3.8-9.8,5.7-14.7,9.5-24.6c2-5.1,1.9-9.2-5.7-12.3c-7.4-3-13.5-0.8-15.5,5.1
			c-3.3,9.6-4.9,14.4-8.2,23.9c-3.8-1.4-5.7-2.1-9.5-3.4c4.2-13.1,8.4-26.2,12.5-39.3c4.1,1.4,6.1,2.2,10.2,3.7
			c-0.7,2-1,2.9-1.7,4.9c0.1,0,0.1,0.1,0.2,0.1c3.8-1.9,9.8-3.2,17.7,0.1c7.3,3,10.8,7.4,11.1,12.5c0.1,0,0.1,0.1,0.2,0.1
			c5.2-2,11.8-2.6,19.6,1.2C998.6,213.7,1001.6,221,997.8,228.8L997.8,228.8z"/>
		<path d="M997.7,248.8c5-9.7,19.1-4.1,26.3-0.8c7.8,3.5,13,5.7,15,2.3c1.5-2.5,0.7-6-6.4-10.4c-8.5-5.2-12.2-4.6-15.2-0.1
			c-3.8-2.2-5.7-3.3-9.5-5.4c6.8-10.9,20.3-3.8,28.2,0.3c7.9,4.1,16.6,13.8,10.6,23.3c-3.9,6.3-5.9,9.5-9.8,15.8
			c-1.6,2.5-1.9,4.1-0.2,5.2c0.3,0.2,0.5,0.4,1.1,0.6c-1,1.6-1.5,2.4-2.5,4c-1.7-0.7-3.2-1.6-4.6-2.5c-4.3-2.8-5.8-5.5-4-9.8
			c-0.1,0-0.1-0.1-0.2-0.1c-5.1,1.8-11.5,0.8-19-3.5C998.4,262.4,994.5,254.9,997.7,248.8L997.7,248.8z M1031.7,262.6
			c1.2-2,1.8-3,3-5c-2.1,0.1-6.6-1.7-11.8-3.8c-9-3.7-13.5-3.9-15.5-0.2c-1.8,3.4-0.4,6.5,5.2,9.8
			C1020.5,268,1028.1,268.6,1031.7,262.6L1031.7,262.6z"/>
		<path d="M1067.9,248.4c1.8-2.8,2.8-4.2,4.6-7c4.2,3,6.3,4.5,10.5,7.6c-1.9,2.8-2.8,4.1-4.7,6.9
			C1074.1,252.9,1072.1,251.4,1067.9,248.4L1067.9,248.4z M1042.4,288.6c7.4-11.2,14.7-22.5,22.1-33.7c3.6,2.5,5.4,3.9,9,6.5
			c-7.6,11.1-15.2,22.1-22.7,33.2C1047.5,292.1,1045.8,290.9,1042.4,288.6z"/>
		<path d="M1060.1,301.5c10.9-15.2,21.9-30.5,32.8-45.7c3.6,2.8,5.4,4.2,9,7.1c-11.2,15-22.5,30-33.7,45
			C1065,305.3,1063.4,304,1060.1,301.5L1060.1,301.5z"/>
		<path d="M1076.5,314.5c2.1-2.7,3.2-4,5.3-6.7c3.6,3,5.4,4.5,9,7.6c-2.2,2.6-3.2,4-5.4,6.6C1081.9,319,1080.1,317.5,1076.5,314.5
			L1076.5,314.5z"/>
		<path d="M1102.9,311c8.9-10.7,25.9-5.2,34.7,3.8c7.1,7.4,14.3,20.2,7.5,30.3c-3.1-3.4-4.7-5.1-7.9-8.5c2.5-3.3,3.8-9.6-3.8-17.2
			c-8.9-8.9-17.1-6.5-22.1-0.9c-4.9,5.6-6.4,13.9,2,22.2c7.3,7.2,12.9,6.1,16.5,3.3c3.1,3.3,4.7,4.9,7.7,8.3
			c-9.4,6.8-21.6-0.2-28.6-6.9C1100,336.9,1094.5,321.1,1102.9,311L1102.9,311z"/>
		<path d="M1145.1,353.2c10.5-10,27.2-1.4,34.8,9c7.7,10.5,13.8,27.9,1.9,36.9c-11.3,8.5-25.6-0.6-33.8-10.2
			C1139.7,379.2,1135.2,362.6,1145.1,353.2z M1174.7,389.5c6.4-5.1,8-13.7,0.4-23.3c-7.8-9.8-16.2-9.8-22.4-4.2
			c-6.1,5.5-7.3,13.7,0.1,23C1160.1,394.1,1168.3,394.5,1174.7,389.5L1174.7,389.5z"/>
		<path d="M1236.9,477.7c-9.6,4.7-14.3,7.1-23.9,11.8c-2.1-4.2-3.1-6.3-5.2-10.4c8.7-4.6,13.1-6.9,21.9-11.4
			c4.5-2.4,6.9-5.6,2.4-13.9c-4.3-8.1-10.5-11-15.5-8.1c-8.2,4.8-12.3,7.2-20.4,12c-2.3-4-3.4-5.9-5.7-9.8
			c8.4-5.2,12.7-7.8,21.1-13.1c4.4-2.7,6.5-6.1,1.7-13.9c-4.7-7.6-11-10-15.8-6.7c-7.9,5.4-11.8,8.1-19.7,13.5
			c-2.5-3.7-3.7-5.6-6.2-9.2c10.5-7.6,21.1-15.2,31.6-22.8c2.7,4,4,5.9,6.7,10c-1.6,1.1-2.4,1.7-4,2.8c0.1,0.1,0.1,0.1,0.1,0.2
			c4.2,1.1,9.9,4.2,14.9,12.4c4.6,7.5,5.2,13.6,2.8,18c0.1,0.1,0.1,0.1,0.1,0.2c5.5,2.1,11.3,6.3,15.9,15.1
			C1245.6,465.9,1244.3,474.1,1236.9,477.7L1236.9,477.7z"/>
	</g>
	<g>
		<path d="M430.8,451.5c8.6,5.5,9.8,15.2,4.9,24.2c-3,5.5-6.8,8-10,8.9c0,0.1,0,0.1-0.1,0.1c1.4,0.7,2,1.1,3.4,1.8
			c-1.4,2.8-2.1,4.2-3.5,7.1c-13.1-6.5-26.2-12.9-39.3-19.4c1.6-3.2,2.4-4.7,4-7.9c5.8,3,8.6,4.5,14.4,7.5c0-0.1,0-0.1,0.1-0.1
			c-0.9-3.2-0.9-8.1,2.3-14.1C411.5,451,421.8,445.8,430.8,451.5L430.8,451.5z M426.4,458.7c-5.2-3.1-11.9-2.6-15.8,4.5
			c-3.6,6.5-1.8,12.7,4.5,16c6.2,3.2,12.2,1.4,15.5-4.8C434.4,467.7,431.6,461.8,426.4,458.7L426.4,458.7z"/>
		<path d="M457.2,416.6c-6.4,8-12.6,16.4-18.2,25c4.4,2.8,10.5,2.2,15-4.2c4-5.6,2.9-9.9,1.7-11.7c1.9-2.5,2.8-3.7,4.7-6.1
			c3.3,5.3,3.1,12.5-2.5,20.8c-5.4,7.9-15.8,12.8-24.6,7.1c-9.4-6.1-7.6-18.5-2-26.3c5.4-7.6,16-12.8,24.3-6
			C456.2,415.6,456.9,416.2,457.2,416.6L457.2,416.6z M448.7,420c-3.9-3-9.5-1.6-13.7,4.2c-3.9,5.5-3.8,11.5,0.1,14.8
			C440.4,431.1,443.1,427.3,448.7,420z"/>
		<path d="M464.6,416.8c-5.3-4.4-2.7-10.9,2.8-19.3c3.5-5.2,5.7-8.4,3.5-10.5c-1.6-1.5-4.2-1.6-8.2,2.8c-4.8,5.2-4.9,8-2,11
			c-2.1,2.4-3.1,3.6-5.1,6c-4.3-4.1-4.7-11.2,3.8-20.5c5.7-6.2,12.3-9.1,18-3.6c4,3.9,6,5.9,10.1,9.8c1.6,1.6,2.7,2.1,3.7,1.1
			c0.2-0.2,0.3-0.3,0.6-0.7c1,1,1.5,1.5,2.6,2.5c-0.7,1-1.5,2-2.3,2.9c-2.5,2.6-4.6,3.2-7.5,1.1c0,0-0.1,0.1-0.1,0.1
			c0.6,4-0.8,8.4-4.9,13.1C474.5,418.6,468.7,420.1,464.6,416.8L464.6,416.8z M478.8,394.5c-1.3-1.2-1.9-1.8-3.2-3
			c-0.2,1.5-2,4.5-4.2,7.9c-3.8,5.9-4.5,9.1-2.1,11.2c2.2,1.9,4.6,1.4,7.7-2C481.3,403.5,482.7,398.1,478.8,394.5L478.8,394.5z"/>
		<path d="M496.8,351.9c2.4-2,3.5-2.9,5.9-4.8c6.4,7.8,12.9,15.7,19.3,23.5c-2.2,1.8-3.3,2.7-5.4,4.5c-1-1.2-1.5-1.8-2.5-2.9
			c0,0-0.1,0.1-0.1,0.1c0,3-1.4,7.2-6.1,11.5c-5,4.6-11.3,6.1-16.2,1.1c-5.9-6.1-8.9-9.1-14.8-15.2c2.2-2.1,3.4-3.2,5.6-5.3
			c5.4,5.7,8,8.5,13.4,14.2c2.8,3,6.3,3.5,10.4-0.1c4.6-4.1,5.6-8.9,2.7-12.4C504.1,360.4,501.7,357.5,496.8,351.9L496.8,351.9z"/>
		<path d="M548.5,333.2c5.4,8.4,2.7,17-4.9,22.3c-4.7,3.2-8.8,3.6-11.9,2.8c0,0-0.1,0-0.1,0.1c3.5,4.6,5.2,6.8,8.6,11.4
			c-2.2,1.6-3.3,2.4-5.4,4.1c-8.4-10.7-16.9-21.5-25.3-32.2c2.4-1.9,3.6-2.8,6.1-4.5c0.9,1.1,1.3,1.7,2.2,2.9c0,0,0.1,0,0.1-0.1
			c0.4-3,2.1-7.1,7.2-10.6C533.3,323.7,543.1,324.9,548.5,333.2L548.5,333.2z M542.1,337.3c-3.3-4.9-9.2-7.4-15.2-3.2
			c-5.5,3.8-6.3,9.7-2.1,15.2c4.1,5.5,9.9,6.6,15.1,3C545.5,348.3,545.4,342.2,542.1,337.3L542.1,337.3z"/>
		<path d="M542.6,312.9c-1.3-2.1-2-3.2-3.3-5.3c3-1.8,4.5-2.6,7.6-4.4c1.3,2.1,1.9,3.2,3.2,5.4C547,310.3,545.5,311.1,542.6,312.9z
			 M561.8,342.9c-5.3-8.5-10.6-17.1-15.9-25.6c2.6-1.5,3.9-2.3,6.5-3.8c5.1,8.6,10.3,17.2,15.4,25.9
			C565.3,340.7,564.1,341.4,561.8,342.9L561.8,342.9z"/>
		<path d="M593.4,303.4c3.5,7.5,5.2,11.3,8.7,18.8c-2.5,1.1-3.8,1.6-6.3,2.8c-3.3-6.9-5-10.4-8.4-17.3c-1.7-3.6-5-5.1-10-2.7
			c-5.7,2.7-7.9,7.2-5.7,11.2c3.5,6.5,5.3,9.7,8.8,16.2c-2.5,1.3-3.7,1.9-6.1,3.2c-5-8.7-9.9-17.4-14.8-26.1c2.6-1.4,4-2.1,6.6-3.5
			c0.7,1.3,1.1,2,1.8,3.3c0,0,0.1,0,0.1-0.1c0.7-2.9,3.2-6.9,9.3-9.7C583.9,296.5,590.5,297.1,593.4,303.4L593.4,303.4z"/>
		<path d="M635.3,295.9c-9,2.7-18,5.8-26.7,9.2c2.1,4.5,7.1,7.5,13.8,5.1c6-2.1,7.2-6,7.1-8.1c2.7-0.9,4.1-1.3,6.8-2.1
			c0,6-3.6,11.5-12.4,14.6c-10.6,3.8-19.1,0.1-22.8-8.2c-3.8-8.6,0.3-17.3,11.4-21.2c11-3.9,19.2,0,22.1,8.7
			C635,294.6,635.2,295.4,635.3,295.9L635.3,295.9z M626.9,293.8c-1.6-4.4-6.7-6.4-12.8-4.3c-5.8,2-8.7,6.7-7.2,11.4
			C614.8,297.8,618.8,296.4,626.9,293.8L626.9,293.8z"/>
		<path d="M658.8,298.5c0.5,1.8,0.7,2.6,1.2,4.4c-1.6,0.7-2.7,1-4.1,1.4c-5.6,1.4-9.6,0.6-11.6-5.9c-2-6.3-2.9-9.5-4.9-15.8
			c-2.1,0.6-3.2,0.9-5.3,1.5c-0.6-1.8-0.9-2.7-1.5-4.5c2.1-0.6,3.2-0.9,5.3-1.5c-1.1-3.6-1.7-5.4-2.8-9.1c2.9-0.8,4.4-1.2,7.3-1.9
			c1.1,3.6,1.6,5.5,2.7,9.1c2.8-0.7,4.3-1.1,7.1-1.8c0.5,1.8,0.7,2.7,1.2,4.5c-2.8,0.7-4.2,1-7,1.7c1.9,6.4,2.8,9.6,4.7,16
			c0.9,3,2.1,3.4,4.9,2.7C657.2,299.1,657.7,298.9,658.8,298.5L658.8,298.5z"/>
		<path d="M679,268.7c0.4,2.1,0.6,3.2,1,5.3c-0.9,0-1.6,0.1-2.4,0.2c-6.5,1.1-10.2,5.8-9,11.2c1.4,5.9,2.1,8.9,3.5,14.8
			c-2.7,0.5-4,0.8-6.6,1.4c-2.4-9.5-4.8-19-7.2-28.5c2.9-0.6,4.3-0.9,7.2-1.5c0.5,2.2,0.8,3.3,1.3,5.4c0.1,0,0.1,0,0.2,0
			c1.1-4,3.6-7.1,8.7-8C676.9,268.8,677.9,268.7,679,268.7L679,268.7z"/>
		<path d="M718.6,280.9c-9.3,0.6-18.7,1.5-27.9,2.9c1,4.8,5.2,8.7,12.2,7.9c6.2-0.7,8.3-4.1,8.7-6.1c2.8-0.2,4.2-0.4,7.1-0.5
			c-1.4,5.7-6.1,10.2-15.3,11.2c-11.1,1.2-18.5-4.1-20.2-12.9c-1.7-9,4.2-16.5,15.8-17.7c11.5-1.2,18.6,4.2,19.5,13.2
			C718.5,279.6,718.6,280.4,718.6,280.9L718.6,280.9z M710.8,277.1c-0.5-4.5-5.1-7.6-11.5-6.9c-6,0.7-9.9,4.5-9.5,9.2
			C698.2,278.2,702.4,277.8,710.8,277.1L710.8,277.1z"/>
		<path d="M758,280.4c-9.3-0.4-18.8-0.5-28.1-0.1c0.5,4.8,4.2,9.1,11.3,9.1c6.3,0,8.7-3.2,9.3-5.1c2.8,0.1,4.2,0.1,7.1,0.2
			c-2,5.5-7.1,9.4-16.3,9.5c-11.2,0.1-17.9-6-18.7-14.8c-0.8-9.1,5.9-15.8,17.5-15.8c11.6,0,18,6.1,18,15
			C758.1,279.1,758.1,280,758,280.4L758,280.4z M750.7,275.9c0-4.5-4.2-8-10.7-8c-6.1,0-10.3,3.4-10.4,8.1
			C738.1,275.7,742.3,275.7,750.7,275.9L750.7,275.9z"/>
		<path d="M762.2,277c0.4-15,18.4-23,32.3-20.5c13.2,2.3,28.7,11.4,26.4,26.5c-1.5,9.9-9.4,12-15.2,11c-4.4-0.8-6.9-2.8-8.2-6
			c-0.1,0-0.1,0-0.1,0c-2.1,2.4-5.3,3.7-10.2,3.1c-6.5-0.8-11.4-5.4-11-12.7c0.5-7.8,7-12.3,14.7-11.3c4.8,0.6,8.4,3.3,9.4,6
			c0.1,0,0.1,0,0.2,0c0.5-1.6,0.8-2.4,1.2-4c2.5,0.4,3.7,0.6,6.2,1c-1.7,5.4-2.6,8.1-4.2,13.5c-1.1,3.6,0,5.9,3.4,6.5
			c4.1,0.7,7.4-2,8.4-8.1c2-12.4-10.6-19.9-21.2-21.3c-11.2-1.5-25.8,3.9-26.3,16.8c-0.5,11.8,10.9,19.3,21.7,20.5
			c4,0.5,8.1,0.7,12.3,0c0.5,1.5,0.8,2.2,1.4,3.7c-4.5,1.2-9.3,0.8-14.1,0.3C775.9,300.6,761.9,290.7,762.2,277L762.2,277z
			 M798.1,279.4c0.5-4.5-2.3-7.3-6.4-7.9c-5.7-0.8-9,2.6-9.4,7.5c-0.3,4,1.6,7.1,6.5,7.7C794.3,287.5,797.6,284.1,798.1,279.4
			L798.1,279.4z"/>
		<path d="M855.2,281.3c2.8,0.9,4.2,1.3,7,2.2c-2.9,9.9-4.4,14.9-7.3,24.9c-2.4,8.1-9.4,9.8-19,7.2c-9.5-2.6-13.5-7.4-13.2-12.5
			c2.8,0.6,4.1,0.9,6.9,1.6c0.1,2.7,2,5.1,7.4,6.6c6.1,1.7,9.9,0.5,11.3-4.6c0.4-1.5,0.6-2.2,1-3.7c0,0-0.1,0-0.1,0
			c-2.5,1.6-6.1,2.6-11.7,1.1c-8.5-2.3-14.3-8.4-12.6-17.3c1.7-8.9,9.8-12,19-9.5c5.9,1.6,8.8,4.8,10.2,7.3c0.1,0,0.1,0,0.1,0
			C854.6,283.2,854.8,282.6,855.2,281.3L855.2,281.3z M851.7,293.8c1.6-6-1.2-10.1-7.5-11.9c-6.9-1.9-11,1.2-12.1,6.5
			c-1.1,5.2,1.1,9.8,7.7,11.6C845.7,301.6,850,299.7,851.7,293.8L851.7,293.8z"/>
		<path d="M915.4,315.2c-3.3,6.9-5,10.4-8.4,17.3c-2.5-1.3-3.7-1.9-6.2-3.1c3-6.5,4.5-9.7,7.4-16.2c1.5-3.4,1.7-6.1-3.4-8.6
			c-4.9-2.4-9.2-1.1-10.8,2.8c-2.6,6.3-3.9,9.5-6.5,15.8c-2.5-1.1-3.8-1.6-6.3-2.7c2.6-6.7,3.9-10,6.5-16.7c1.3-3.5,1.3-6.3-3.9-8.4
			c-5.1-2-9.2-0.6-10.5,3.5c-2.2,6.5-3.3,9.8-5.5,16.3c-2.6-1-3.8-1.4-6.4-2.3c2.8-8.9,5.7-17.8,8.5-26.7c2.8,1,4.2,1.5,6.9,2.5
			c-0.5,1.3-0.7,2-1.1,3.3c0.1,0,0.1,0,0.1,0c2.6-1.3,6.6-2.1,12,0.1c5,2,7.4,5,7.6,8.5l0.1,0.1c3.5-1.4,8-1.8,13.3,0.8
			C915.9,304.9,918,309.8,915.4,315.2L915.4,315.2z"/>
		<path d="M915.3,328.8c2.8-5.5,9.2-4.2,17.9-0.5c5.5,2.3,8.8,3.9,10.2,1.5c1-1.7,0.5-4.1-4.4-7c-5.8-3.5-8.3-3.1-10.3-0.1
			c-2.6-1.5-3.9-2.2-6.5-3.6c2.7-4.6,9-6.1,19.2,0.2c6.9,4.2,11,9.8,7.2,15.9c-2.7,4.3-4,6.4-6.7,10.7c-1,1.7-1.3,2.8-0.2,3.5
			c0.2,0.1,0.4,0.2,0.8,0.4c-0.7,1.1-1,1.6-1.7,2.7c-1.1-0.5-2.2-1.1-3.1-1.7c-2.9-1.9-4-3.8-2.7-6.7c0,0-0.1,0-0.1-0.1
			c-3.5,1.2-7.8,0.6-12.9-2.4C915.7,338,913.1,333,915.3,328.8L915.3,328.8z M938.4,338.1c0.8-1.4,1.2-2,2-3.4
			c-1.4,0.1-4.5-1.1-8-2.6c-6.1-2.5-9.2-2.7-10.5-0.1c-1.2,2.3-0.2,4.4,3.5,6.6C930.8,341.8,936,342.2,938.4,338.1L938.4,338.1z"/>
		<path d="M963,328.5c1.2-1.9,1.9-2.9,3.1-4.8c2.9,2,4.3,3,7.1,5.1c-1.3,1.9-1.9,2.8-3.2,4.7C967.2,331.5,965.8,330.5,963,328.5
			L963,328.5z M945.7,355.8c6-9.2,9-13.8,15-22.9c2.5,1.7,3.7,2.6,6.1,4.4c-6.2,9-9.3,13.5-15.5,22.6
			C949.1,358.2,948,357.4,945.7,355.8z"/>
		<path d="M957.7,364.6c7.4-10.4,14.9-20.7,22.3-31.1c2.5,1.9,3.7,2.9,6.2,4.9c-7.6,10.2-15.3,20.4-22.9,30.6
			C961.1,367.1,960,366.3,957.7,364.6L957.7,364.6z"/>
		<path d="M968.9,373.4c1.4-1.8,2.2-2.8,3.6-4.6c2.5,2,3.7,3.1,6.1,5.2c-1.5,1.8-2.2,2.7-3.7,4.5
			C972.5,376.5,971.3,375.4,968.9,373.4L968.9,373.4z"/>
		<path d="M986.8,371c5.5-6.5,15.1-5.9,23.6,2.6c7.3,7.4,8.8,15.7,5.1,20.6c-2.1-2.3-3.2-3.5-5.3-5.8c1.7-2.3,2.5-6.5-2.6-11.7
			c-6-6-11.6-4.4-15-0.6c-3.4,3.8-4.4,9.4,1.4,15.1c5,4.9,8.8,4.1,11.2,2.2c2.1,2.2,3.2,3.4,5.2,5.6c-4.8,3.9-12.6,2.1-19.4-4.7
			C983,386.7,981.4,377.5,986.8,371L986.8,371z"/>
		<path d="M1015.5,399.7c6.1-5.7,15.5-3.8,23.7,6.1c5.6,6.8,9.6,18.8,1.3,25.1c-6.5,5-15.5,2.4-23-6.9
			C1010,414.7,1009.4,405.5,1015.5,399.7L1015.5,399.7z M1035.6,424.4c4.4-3.5,5.5-9.3,0.2-15.8c-5.3-6.7-11-6.7-15.2-2.9
			c-4.1,3.7-5,9.3,0.1,15.6C1025.7,427.5,1031.3,427.8,1035.6,424.4z"/>
		<path d="M1077.9,484.4c-6.5,3.2-9.8,4.8-16.2,8c-1.4-2.9-2.1-4.3-3.6-7.1c5.9-3.1,8.9-4.7,14.9-7.8c3.1-1.6,4.7-3.8,1.7-9.5
			c-2.9-5.5-7.1-7.5-10.5-5.5c-5.6,3.3-8.3,4.9-13.9,8.2c-1.5-2.7-2.3-4-3.9-6.7c5.7-3.6,8.6-5.3,14.3-8.9c3-1.9,4.4-4.1,1.2-9.5
			c-3.2-5.2-7.5-6.8-10.8-4.6c-5.3,3.7-8,5.5-13.4,9.2c-1.7-2.5-2.5-3.8-4.2-6.3c8.6-6.2,12.9-9.3,21.5-15.5c1.8,2.7,2.7,4,4.5,6.8
			c-1.1,0.8-1.6,1.1-2.7,1.9c0,0.1,0.1,0.1,0.1,0.1c2.9,0.7,6.8,2.9,10.1,8.4c3.1,5.1,3.6,9.3,1.9,12.2c0,0.1,0.1,0.1,0.1,0.1
			c3.7,1.4,7.7,4.3,10.8,10.2C1083.8,476.3,1082.9,481.9,1077.9,484.4L1077.9,484.4z"/>
	</g>
</g>
</svg>
