<?xml version="1.0" encoding="UTF-8"?><svg id="_레이어_1" xmlns="http://www.w3.org/2000/svg" viewBox="0 0 1459.02 514.8"><defs><style>.cls-1{letter-spacing:-.02em;}.cls-2{letter-spacing:0em;}.cls-3{font-family:PPNeueMontreal-Medium, 'PP Neue Montreal';font-size:35.95px;font-weight:500;}</style></defs><g><g><path d="m112.16,403.11c17.16,10.84,19.16,32.39,9.84,49.16-6.2,11.16-13.72,16.21-20.32,17.95-.06.12-.09.18-.15.29,2.78,1.44,4.17,2.17,6.94,3.61-2.89,5.68-4.31,8.55-7.1,14.33-26.59-13.12-53.18-26.25-79.77-39.37,3.17-6.44,4.78-9.63,8.05-15.95,9.74,5.06,19.47,10.13,29.21,15.19.06-.12.1-.19.16-.31-2.54-9.67,0-20.07,4.76-28.57,9.63-17.16,30.12-27.87,48.37-16.33Zm-8.8,14.56c-11.75-7.07-25-2.41-32.06,9.18-7.14,11.73-2.61,26.41,9.14,32.5,11.22,5.82,25.67,2.2,31.56-9.74,5.86-11.87,2.67-25.14-8.64-31.94Z"/><path d="m165.85,332.24c-12.92,16.53-25.19,33.41-36.96,50.77,10.83,6.74,23.68,1.29,30.39-8.49,7.83-11.41,5.83-20.05,3.37-23.72,3.8-5.02,5.73-7.51,9.62-12.43,8.33,13.29,3.32,30.52-5.18,42.17-11.36,15.56-31.79,26.13-49.97,14.43-19.26-12.4-15.69-37.16-4.04-53.45,11.4-15.94,32.04-26.3,49.32-12.25,1.32,1.08,2.78,2.23,3.45,2.96Zm-17.35,6.91c-9.81-7.17-21.78.16-27.72,8.55-6.14,8.67-8.93,22.08.24,29.99,8.78-13.11,17.9-26,27.48-38.54Z"/><path d="m180.8,332.64c-12.59-10.22-1.3-28.81,5.65-39.11,7.09-10.5,11.53-17.06,7.08-21.25-3.29-3.1-8.53-3.2-16.67,5.75-9.65,10.62-9.86,16.29-4.07,22.34-4.17,4.85-6.24,7.3-10.33,12.26-13.18-13.19-1.37-30.4,7.68-41.56,8.48-10.46,24.97-19.23,36.49-7.26,6.81,6.66,13.61,13.31,20.42,19.97,3.23,3.16,5.41,4.24,7.42,2.21.32-.32.63-.64,1.18-1.37,2.08,2.06,3.12,3.09,5.2,5.15-1.44,2.14-3.03,4.12-4.7,5.82-5.09,5.24-9.42,6.49-15.2,2.29-.08.09-.12.13-.21.22,1.43,9.86-3.75,19.44-9.84,26.56-6.98,8.15-20.28,15.96-30.1,7.98Zm28.75-45.29c-2.6-2.45-3.9-3.67-6.5-6.11-.38,3.08-4.09,9.04-8.53,15.94-7.68,11.91-9.2,18.52-4.26,22.74,4.47,3.82,9.43,2.57,15.58-4.16,6.77-7.4,12.44-19.99,3.71-28.4Z"/><path d="m246.19,200.91c4.77-3.98,7.17-5.95,12.01-9.82,13.08,15.91,26.15,31.83,39.23,47.74-4.45,3.6-6.66,5.42-11.05,9.12-2.02-2.36-3.03-3.54-5.04-5.9-.09.08-.14.11-.23.19.02,6.17-3.3,14.7-12.38,23.4-8.97,8.6-23.18,11.61-32.83,2.27-10.02-10.26-20.04-20.51-30.06-30.77,4.53-4.37,6.81-6.53,11.42-10.79,9.06,9.64,18.12,19.27,27.18,28.91,5.75,6.12,12.84,6.8,21.04-.26,7.03-6.05,12.31-16.95,5.39-25.23l-24.67-28.87Z"/><path d="m351.07,163.14c9.75,15.12,4.84,35.46-10.01,45.2-9.42,6.17-17.77,7.26-24.06,5.75-.09.07-.14.1-.24.17,5.83,7.71,11.66,15.42,17.49,23.13-4.44,3.29-6.64,4.96-11.02,8.35-17.13-21.78-34.25-43.55-51.38-65.33,4.91-3.75,7.37-5.59,12.34-9.23,1.75,2.31,2.62,3.47,4.37,5.78.1-.07.15-.11.25-.18.89-6.04,4.38-14.38,14.67-21.45,15.74-10.82,36.84-8.85,47.59,7.82Zm-13.03,8.25c-7.36-10.55-20.05-13.94-30.89-6.6-10.9,7.38-12.07,20.59-4.26,30.87,7.52,9.9,19.85,13.21,30.59,6.04,10.51-7.02,11.45-20.42,4.55-30.31Z"/><path d="m339.06,121.85c-2.69-4.32-4.04-6.48-6.73-10.8,6.1-3.61,9.17-5.38,15.34-8.84,2.59,4.37,3.89,6.55,6.49,10.92-6.07,3.42-9.09,5.16-15.1,8.72Zm38.89,60.78c-10.77-17.33-21.54-34.65-32.31-51.98,5.23-3.1,7.86-4.62,13.15-7.61,10.43,17.5,20.85,35,31.28,52.51-4.87,2.78-7.29,4.2-12.12,7.08Z"/><path d="m442.21,102.48l17.62,38.2c-5.1,2.21-7.64,3.33-12.71,5.64l-16.96-35.03c-3.53-7.28-10.2-10.12-20.27-5.55-8.38,3.8-16.71,13.09-11.57,22.76l17.84,32.86c-4.96,2.56-7.44,3.87-12.36,6.54-10.04-17.69-20.08-35.38-30.12-53.07,5.34-2.86,8.02-4.26,13.4-7.01,1.46,2.69,2.19,4.03,3.65,6.72.11-.06.16-.08.27-.14,2.43-9.18,10.45-15.92,18.79-19.68,11.68-5.27,26.13-5.18,32.4,7.77Z"/><path d="m527.27,87.26c-18.3,5.68-36.32,11.88-54.25,18.65,4.94,10.77,17.36,14.25,28.01,10.3,11.87-4.4,14.56-12.2,14.45-16.38,5.5-1.79,8.26-2.65,13.79-4.33-.51,14.99-11.74,24.71-25.1,29.62-17.78,6.53-38.06,1.6-46.21-16.65-8.62-19.29,5.2-36.7,23.16-43.01,17.71-6.23,38.5-2.04,44.91,17.62.51,1.56,1.08,3.24,1.24,4.17Zm-17.14-4.16c-4-10.57-16.73-11.95-26.03-8.66-9.37,3.32-17.89,12.36-14.61,23.06,13.46-5.09,26.98-9.88,40.64-14.4Z"/><path d="m574.98,92.64c.97,3.57,1.45,5.36,2.42,8.94-3.27,1.38-5.46,2.01-8.28,2.76-10.92,2.89-20.12-.45-23.59-11.96-3.32-10.66-6.64-21.33-9.96-31.99-4.29,1.19-6.44,1.8-10.72,3.04-1.18-3.62-1.78-5.44-2.96-9.06,4.33-1.26,6.5-1.88,10.85-3.08-2.29-7.36-3.44-11.05-5.73-18.41,5.9-1.62,8.85-2.4,14.78-3.9,2.15,7.39,3.23,11.09,5.38,18.49,5.78-1.48,8.68-2.19,14.48-3.55.99,3.67,1.49,5.5,2.48,9.16-5.73,1.35-8.6,2.05-14.31,3.52,3.15,10.82,6.29,21.64,9.44,32.46,1.77,6.09,4.23,6.88,10.03,5.45,2.35-.58,3.42-.96,5.69-1.86Z"/><path d="m615.99,32.1c.85,4.3,1.27,6.45,2.11,10.74-1.82.06-3.19.19-4.95.46-11.02,1.72-21.01,10.81-18.22,22.81,2.34,10.01,4.68,20.03,7.03,30.04-5.4,1.09-8.09,1.67-13.47,2.86l-14.69-57.85c5.82-1.27,8.74-1.88,14.58-3.04,1.03,4.41,1.55,6.62,2.58,11.04.12-.02.18-.04.29-.06,2.27-8.07,7.26-14.41,17.61-16.18,2.7-.46,4.82-.69,7.12-.83Z"/><path d="m696.16,56.88c-18.98,1.38-37.82,3.3-56.69,5.79,2.4,11.48,13.67,17.47,24.77,16.06,12.47-1.58,16.83-8.42,17.66-12.44,5.73-.49,8.6-.7,14.33-1.08-3.9,14.31-17.03,21.03-30.96,22.74-18.51,2.28-37.12-6.78-40.94-26.18-4.04-20.51,13.46-33.91,32.02-35.93,18.33-1.99,37.71,6.4,39.53,26.78.14,1.6.32,3.33.26,4.26Zm-15.67-7.77c-1.53-11.07-13.6-15.11-23.25-14.04-9.71,1.07-20.06,7.75-19.29,18.78,14.17-1.87,28.32-3.44,42.55-4.73Z"/><path d="m776.18,55.97c-19.01-.63-37.93-.7-56.95-.22,1.18,11.62,11.8,18.64,22.91,18.41,12.56-.26,17.62-6.54,18.87-10.42,5.75.12,8.62.21,14.37.43-5.43,13.75-19.23,18.94-33.19,19.17-18.5.31-36.15-10.45-37.89-30.07-1.84-20.75,17.1-32.02,35.62-32.07,18.29-.05,36.8,10.13,36.44,30.52-.03,1.59-.03,3.32-.19,4.23Zm-14.75-9.29c-.36-11.13-11.98-16.31-21.62-16.27-9.7.05-20.74,5.48-21.16,16.49,14.27-.37,28.5-.44,42.78-.22Z"/><path d="m784.76,48.93c.76-34,37.95-44.75,65.5-41.71,26.08,2.88,58.56,22.15,53.59,53.78-2.47,15.74-15.74,24.81-30.82,22.34-8.9-1.45-14.01-5.74-16.72-12.22-.11-.02-.17-.03-.29-.04-4.2,4.88-11.01,7.29-20.67,6.37-13.1-1.24-22.99-13.23-22.24-25.81.86-14.37,15.1-25.24,29.75-22.95,9.49,1.48,16.96,6.72,19.02,12.08.12.02.18.03.3.05,1.01-3.29,1.51-4.93,2.53-8.21,5.04.79,7.55,1.21,12.58,2.08-2.92,9.1-5.79,18.23-8.58,27.37-2.31,7.31-.02,12.02,6.92,13.24,8.36,1.48,14.92-3.92,17.02-16.37,4.3-25.44-21.85-41.37-42.95-43.31-22.16-2.04-52.31,5.57-53.37,34.01-.92,24.55,22.17,38.89,43.93,41.6,8.15,1.02,16.4,1.45,24.94.09,1.12,3.03,1.67,4.54,2.76,7.58-8.81,2.36-19.83,1.87-28.54.7-26.69-3.58-55.33-21.09-54.67-50.67Zm72.87,4.96c1.09-9.24-4.74-14.84-13.07-15.93-11.61-1.52-18.3,5.37-19.04,15.25-.61,8.06,3.24,14.36,13.24,15.61,11,1.38,17.75-5.47,18.87-14.93Z"/><path d="m973.34,57.71c5.71,1.76,8.56,2.66,14.23,4.53-4.96,16.81-9.92,33.61-14.88,50.42-4.64,17.38-24.35,18.37-38.45,14.61-11.49-3.06-27.02-11.32-26.86-25.44,5.58,1.26,8.37,1.92,13.93,3.29.26,5.39,4.45,10.14,15.07,13.43,8.89,2.75,20.49,1.52,22.86-9.41.82-2.98,1.23-4.47,2.04-7.45-.11-.03-.16-.05-.27-.08-5.05,3.26-12.5,5.14-23.64,2.21-15.27-4.01-28.61-18.77-25.52-35.16,3.28-17.4,23.25-23.67,38.64-19.33,11.95,3.37,17.81,9.66,20.79,14.79.12.04.17.05.29.09l1.78-6.48Zm-7.1,25.35c3.08-11.27-4.72-21.12-15.29-24.07-10.46-2.92-22.13,1.72-24.53,13.09-2.32,11.01,5.21,20.67,15.57,23.56,10.28,2.86,21.3-1.77,24.25-12.58Z"/><path d="m1095.56,126.47c-5.66,11.72-11.33,23.44-16.99,35.16-4.97-2.57-7.47-3.83-12.48-6.3,5.03-10.94,10.05-21.89,15.08-32.83,3.14-6.83,3.38-12.47-6.93-17.37-10.03-4.76-18.58-2.33-21.81,5.58-4.39,10.71-8.77,21.41-13.16,32.12-5.1-2.25-7.65-3.35-12.78-5.49,4.37-11.29,8.74-22.58,13.11-33.87,2.73-7.04,2.64-12.71-7.9-16.95-10.26-4.12-18.63-1.13-21.39,6.99-3.75,11.01-7.49,22.02-11.24,33.03-5.2-1.93-7.81-2.86-13.05-4.68,5.76-18.08,11.53-36.17,17.29-54.25,5.64,1.99,8.46,3.02,14.07,5.12-.92,2.7-1.38,4.05-2.3,6.75.11.04.17.06.28.11,5.23-2.68,13.45-4.36,24.38.13,10.08,4.13,14.96,10.19,15.36,17.27.11.05.17.07.28.12,7.18-2.77,16.22-3.59,27.03,1.65,11.02,5.33,19,15.51,13.15,27.72Z"/><path d="m1095.34,154.04c6.47-12.77,26.23-5.66,36.29-1.1,10.77,4.88,17.93,7.85,20.73,3.14,2.07-3.48.98-8.3-8.86-14.3-11.68-7.12-16.78-6.38-20.96-.17-5.24-3.01-7.88-4.49-13.17-7.39,8.97-13.78,28.01-6.5,38.93.35,10.82,6.79,22.68,18.73,14.67,32.19l-13.49,21.73c-2.13,3.44-2.62,5.6-.31,7.13.36.24.73.49,1.51.88-1.4,2.22-2.1,3.32-3.5,5.54-2.27-1-4.43-2.17-6.36-3.43-5.91-3.87-8.01-7.64-5.5-13.56-.1-.06-.15-.09-.25-.16-7.02,2.42-15.96.85-26.14-4.85-8.7-4.86-18.79-15.76-13.59-26.02Zm46.95,18.99c1.63-2.75,2.45-4.12,4.08-6.87-2.87.12-9.09-2.34-16.27-5.3-12.42-5.13-18.64-5.44-21.37-.29-2.47,4.66-.28,8.94,7.1,13.49,7.67,4.72,20.48,8.54,26.45-1.03Z"/><path d="m1192.18,153.55c2.53-3.87,3.79-5.81,6.32-9.68,5.84,4.1,8.74,6.19,14.49,10.44-2.61,3.8-3.92,5.71-6.53,9.51-5.68-4.18-8.53-6.24-14.29-10.27Zm-35.14,55.37c10.16-15.51,20.32-31.01,30.48-46.52,5.01,3.52,7.51,5.31,12.46,8.94-10.45,15.27-20.91,30.54-31.36,45.81-4.61-3.35-6.92-4.99-11.58-8.23Z"/><path d="m1181.45,226.7c15.11-21.02,30.21-42.05,45.32-63.07,5.02,3.88,7.52,5.84,12.47,9.83-15.5,20.67-31.01,41.35-46.51,62.02-4.48-3.56-6.74-5.32-11.28-8.78Z"/><path d="m1204.1,244.71c2.91-3.71,4.36-5.57,7.27-9.29,5,4.16,7.48,6.27,12.4,10.55-2.99,3.64-4.48,5.46-7.47,9.1-4.84-4.21-7.29-6.28-12.21-10.36Z"/><path d="m1240.54,239.77c13.45-16.09,35.59-6.63,47.82,5.3,9.93,9.67,20.04,28.57,10.32,41.82-4.3-4.73-6.47-7.06-10.85-11.67,3.45-4.6,4.6-13.24-5.3-23.69-8.3-8.77-22.01-10.83-30.43-1.18-8.12,9.31-5.91,22.51,2.76,30.7,10.04,9.48,17.82,8.37,22.72,4.52,4.3,4.51,6.43,6.8,10.65,11.42-13.25,9.2-29.29.27-39.39-9.52-12.5-12.12-20.98-32.52-8.3-47.7Z"/><path d="m1298.65,298.02c15.75-14.98,37.27-1.28,48.05,12.34,10.79,13.63,19.85,38,2.61,50.95-16.33,12.27-36.04-.91-46.59-14.03-10.82-13.47-18.84-35.22-4.07-49.26Zm40.9,50.11c10.66-8.4,7.7-22.24.5-32.15-7.21-9.91-21.26-14.6-30.85-5.87-9.23,8.39-7.7,22.64.19,31.74,7.77,8.96,19.96,14.31,30.16,6.27Z"/><path d="m1425.4,469.76l-32.97,16.27c-2.83-5.78-4.27-8.65-7.2-14.33,10.05-5.26,20.1-10.52,30.15-15.78,6.27-3.28,9.48-7.75,3.38-19.19-5.93-11.13-14.45-15.24-21.39-11.16-9.4,5.53-18.8,11.06-28.19,16.59-3.12-5.46-4.71-8.16-7.92-13.52,9.7-6.01,19.41-12.02,29.11-18.04,6.05-3.75,9-8.41,2.33-19.19-6.5-10.49-15.18-13.86-21.85-9.27-9.04,6.22-18.08,12.44-27.12,18.67-3.39-5.14-5.11-7.68-8.59-12.71l43.58-31.46c3.72,5.45,5.56,8.2,9.19,13.76-2.22,1.53-3.33,2.29-5.54,3.82.07.11.11.17.18.28,5.86,1.47,13.72,5.81,20.58,17.09,6.33,10.4,7.23,18.79,3.8,24.8.07.12.1.18.17.3,9.75,3.73,17.24,11.68,21.94,20.79,5.38,10.43,9.1,25.68-3.64,32.29Z"/></g><g><path d="m284.96,429.36c11.79,7.49,13.34,24.12,7.13,35.63-4.37,8.11-9.94,11.75-14.73,13.01-.04.08-.06.13-.11.21,2.01,1.05,3.02,1.57,5.03,2.62-2.09,4.12-3.12,6.2-5.14,10.39-19.27-9.51-38.55-19.03-57.82-28.54,2.29-4.67,3.46-6.98,5.83-11.56,8.47,4.4,12.71,6.61,21.18,11.01.05-.09.07-.14.12-.23-1.26-4.65-1.51-12,3.45-20.71,6.63-11.63,22.49-19.83,35.07-11.84Zm-6.38,10.55c-7.7-4.61-17.44-3.85-23.24,6.65-5.32,9.63-2.64,18.74,6.62,23.56,9.19,4.78,17.9,2.04,22.88-7.06,5.43-9.92,1.43-18.54-6.26-23.15Z"/><path d="m323.88,377.99c-9.33,12.02-18.21,24.23-26.79,36.8,6.43,4.06,15.39,3.18,22.03-6.15,5.92-8.32,4.23-14.53,2.44-17.19,2.76-3.64,4.15-5.44,6.97-9.01,6.06,9.82,2.1,22.02-3.75,30.57-7.86,11.47-23.89,18.33-36.22,10.46-13.52-8.63-11.83-26.64-2.93-38.74,7.9-10.75,23.88-19.12,35.75-8.88.91.78,2.02,1.61,2.5,2.15Zm-12.58,5.01c-5.66-4.34-13.99-2.32-20.09,6.2-5.75,8.03-5.65,16.93.18,21.74,6.47-9.47,13.07-18.73,19.92-27.93Z"/><path d="m334.72,378.28c-9.15-7.62-.96-21.09,4.1-28.35,5.17-7.42,8.36-12.37,5.13-15.4-2.39-2.25-6.18-2.32-12.08,4.17-7,7.7-7.15,11.81-2.95,16.19-3.03,3.51-4.52,5.29-7.49,8.89-8.89-8.78-1.1-22.97,5.56-30.13,6.42-6.89,17.99-13.93,26.45-5.26,5.92,5.79,8.88,8.68,14.8,14.47,2.34,2.29,3.92,3.07,5.38,1.6.23-.23.46-.46.86-.99,1.51,1.49,2.26,2.24,3.77,3.74-1.04,1.55-2.2,2.98-3.4,4.22-3.69,3.8-6.83,4.7-11.02,1.66-.06.06-.09.1-.15.16.94,5.86-1.18,12.42-7.13,19.25-7.31,8.4-15.92,10.7-21.82,5.79Zm20.84-32.83c-1.88-1.77-2.83-2.66-4.71-4.43-.28,2.23-2.96,6.56-6.18,11.55-5.56,8.63-6.67,13.43-3.09,16.48,3.24,2.77,6.84,2.04,11.29-3.02,6.42-7.29,8.43-15.19,2.69-20.59Z"/><path d="m382.12,282.78c3.46-2.89,5.2-4.31,8.7-7.12,9.48,11.54,18.96,23.07,28.44,34.61-3.22,2.61-4.83,3.93-8.01,6.61-1.46-1.71-2.19-2.57-3.66-4.28-.07.06-.1.08-.16.14.01,4.47-2.03,10.67-8.97,16.96-7.42,6.73-16.58,9.03-23.8,1.64-7.26-7.43-14.53-14.87-21.79-22.3,3.28-3.17,4.94-4.73,8.28-7.82,6.57,6.99,13.13,13.97,19.7,20.96,4.17,4.44,9.3,5.13,15.25-.18,6.76-6.03,8.3-13.14,3.91-18.29-7.15-8.37-10.73-12.56-17.88-20.93Z"/><path d="m458.15,255.4c6.96,10.84,2.93,25.59-7.26,32.76-6.76,4.76-12.88,5.26-17.44,4.16-.07.05-.1.08-.17.13,5.07,6.71,7.61,10.06,12.68,16.77-3.22,2.39-4.81,3.6-7.99,6.05-12.42-15.79-24.83-31.57-37.25-47.36,3.56-2.72,5.34-4.05,8.95-6.69,1.27,1.68,1.9,2.51,3.17,4.19.07-.05.11-.08.18-.13.65-4.38,3.16-10.57,10.63-15.55,10.75-7.16,27.08-5.89,34.49,5.67Zm-9.44,5.98c-4.87-7.24-13.51-10.89-22.39-4.78-8.14,5.6-9.22,14.28-3.09,22.38,6.07,8.04,14.52,9.68,22.18,4.38,8.35-5.79,8.17-14.73,3.3-21.97Z"/><path d="m449.44,225.46c-1.95-3.13-2.93-4.7-4.88-7.83,4.42-2.62,6.65-3.9,11.12-6.41,1.88,3.17,2.82,4.75,4.7,7.92-4.4,2.48-6.59,3.74-10.95,6.32Zm28.19,44.06c-7.81-12.56-15.62-25.12-23.42-37.68,3.79-2.25,5.7-3.35,9.53-5.51l22.68,38.06c-3.53,2.02-5.29,3.04-8.78,5.13Z"/><path d="m524.21,211.43c4.26,9.23,8.52,18.46,12.78,27.69-3.7,1.6-5.54,2.42-9.21,4.09-4.1-8.46-8.2-16.93-12.3-25.39-2.56-5.28-7.32-7.54-14.69-4.03-8.37,3.99-11.57,10.64-8.38,16.5,5.17,9.53,7.76,14.29,12.93,23.82-3.6,1.86-5.39,2.81-8.96,4.74-7.28-12.82-14.55-25.65-21.83-38.47,3.87-2.07,5.81-3.09,9.72-5.08,1.06,1.95,1.59,2.92,2.64,4.87.08-.04.12-.06.2-.1,1.05-4.33,4.72-10.1,13.62-14.27,9.51-4.45,19.26-3.52,23.49,5.63Z"/><path d="m585.88,200.4c-13.28,4-26.4,8.51-39.32,13.52,3.03,6.66,10.45,10.96,20.3,7.47,8.77-3.11,10.55-8.84,10.47-11.87,3.99-1.29,5.99-1.92,10-3.14-.08,10.67-9.19,18.11-18.19,21.47-12.42,4.64-28,.28-33.5-12.07-5.79-13,3.54-27.1,16.79-31.18,12.99-4.01,27.72-1.39,32.56,12.77.38,1.12.78,2.35.9,3.03Zm-12.42-3.02c-2.29-6.45-9.87-9.45-18.87-6.28-8.49,2.99-12.78,9.83-10.59,16.72,9.69-3.78,19.55-7.28,29.46-10.44Z"/><path d="m620.46,204.29c.7,2.59,1.05,3.89,1.75,6.48-2.37,1-3.93,1.48-6,2-8.3,2.09-14.11.93-17.1-8.67-2.89-9.28-4.33-13.92-7.22-23.19-3.11.86-4.67,1.3-7.77,2.21-.86-2.63-1.29-3.94-2.15-6.57,3.14-.91,4.71-1.36,7.86-2.23-1.66-5.34-2.49-8.01-4.15-13.35,4.28-1.17,6.42-1.74,10.71-2.83,1.56,5.36,2.34,8.04,3.9,13.4,4.19-1.07,6.29-1.58,10.5-2.57.72,2.66,1.08,3.99,1.8,6.64-4.16.98-6.23,1.49-10.37,2.55,2.74,9.41,4.11,14.12,6.84,23.53,1.28,4.41,3.06,4.99,7.27,3.95,1.7-.42,2.48-.7,4.12-1.35Z"/><path d="m650.19,160.41c.61,3.12.92,4.67,1.53,7.79-1.32.04-2.3.12-3.59.34-9.54,1.61-15.08,8.53-13.2,16.53,2.04,8.71,3.06,13.06,5.09,21.77-3.91.79-5.87,1.21-9.77,2.08-3.55-13.98-7.1-27.96-10.65-41.94,4.22-.92,6.34-1.36,10.57-2.2.75,3.2,1.12,4.8,1.87,8,.09-.02.13-.03.21-.04,1.64-5.85,5.26-10.45,12.76-11.73,1.96-.33,3.5-.5,5.16-.6Z"/><path d="m708.31,178.37c-13.74.88-27.45,2.28-41.09,4.19,1.43,7.03,7.64,12.8,17.96,11.64,9.19-1.03,12.2-6.11,12.8-9.02,4.15-.35,6.23-.51,10.39-.78-2.5,10.25-13.04,15.28-22.44,16.48-12.96,1.67-27.11-5.86-29.68-18.98-2.7-13.8,9.63-25.1,23.21-26.04,13.34-.93,27.12,4.7,28.65,19.41.12,1.16.23,2.42.19,3.09Zm-11.36-5.63c-.77-6.67-7.44-11.21-16.86-10.18-8.88.97-14.56,6.55-13.99,13.61,10.22-1.46,20.55-2.61,30.84-3.43Z"/><path d="m766.32,177.71c-13.75-.57-27.52-.62-41.28-.16.68,7.08,6.23,13.41,16.6,13.35,9.24-.05,12.77-4.74,13.68-7.55,4.17.09,6.25.15,10.41.31-3.6,9.88-14.63,13.69-24.06,13.9-12.97.29-26.3-8.53-27.46-21.8-1.22-13.96,12.32-23.73,25.82-23.25,13.26.48,26.45,7.39,26.42,22.13,0,1.15-.02,2.41-.14,3.07Zm-10.69-6.74c-.06-6.65-6.2-11.83-15.67-11.79-8.92.03-15.16,4.93-15.34,11.96,10.31-.37,20.69-.43,31.01-.16Z"/><path d="m772.53,172.61c.52-24.16,28.02-33.8,47.48-30.24,18.22,3.34,43.14,15.02,38.85,38.99-1.96,10.94-11.19,18.21-22.34,16.2-6.46-1.16-10.16-4.16-12.12-8.86-.08-.01-.12-.02-.21-.03-3.05,3.54-7.82,5.49-14.98,4.62-9.52-1.15-16.7-8.02-16.12-18.71.61-11.25,10.87-18.08,21.57-16.64,7.05.95,12.29,4.87,13.79,8.76.09.01.13.02.22.03.73-2.38,1.1-3.57,1.84-5.95,3.65.57,5.47.88,9.12,1.51-2.54,7.92-3.78,11.89-6.22,19.84-1.68,5.3-.02,8.71,5.02,9.6,6.06,1.07,10.82-2.84,12.34-11.87,3.02-17.96-15.88-29.55-31.14-31.4-16.73-2.02-37.19,5.45-38.69,24.65-1.37,17.49,16.87,28.33,31.84,30.16,5.89.72,11.89,1.05,18.08.07.81,2.2,1.21,3.29,2,5.49-6.65,1.71-13.48,1.39-20.69.51-19.47-2.38-40.1-14.67-39.62-36.73Zm52.82,3.6c.79-6.7-3.44-10.76-9.48-11.55-8.41-1.1-13.26,3.9-13.8,11.06-.44,5.84,2.35,10.41,9.6,11.32,7.97,1,12.87-3.97,13.68-10.83Z"/><path d="m909.24,178.97c4.14,1.27,6.2,1.93,10.32,3.28-3.59,12.18-7.19,24.37-10.79,36.55-3.84,12.7-16.98,13.32-27.87,10.59-8.57-2.15-19.8-7.97-19.47-18.44,4.05.91,6.06,1.39,10.09,2.38.19,3.91,2.87,7.54,10.92,9.73,9.02,2.45,14.51.7,16.57-6.82.59-2.16.89-3.24,1.48-5.4-.08-.02-.12-.04-.2-.06-3.66,2.37-9.06,3.81-17.14,1.6-11.8-3.23-20.89-12.97-18.5-25.49,2.39-12.53,16.35-17.6,28.01-14.01,8.4,2.58,12.91,7,15.07,10.72.08.03.13.04.21.06.52-1.88.77-2.82,1.29-4.7Zm-5.15,18.37c2.4-8.77-1.82-14.88-11.09-17.45-10.11-2.8-16.13,1.84-17.78,9.49-1.65,7.66,1.67,14.44,11.28,17.08,8.81,2.42,15.2-.43,17.58-9.12Z"/><path d="m997.84,228.82c-4.11,8.5-8.21,16.99-12.32,25.49-3.6-1.86-5.41-2.78-9.05-4.56l10.93-23.8c2.27-4.95,2.45-9.04-5.02-12.59-7.27-3.45-13.46-1.69-15.81,4.04-3.82,9.31-5.72,13.97-9.54,23.28-3.69-1.63-5.55-2.42-9.27-3.98,3.8-9.82,5.7-14.73,9.5-24.56,1.98-5.11,1.91-9.22-5.73-12.28-7.44-2.99-13.5-.82-15.51,5.07-3.26,9.58-4.89,14.37-8.15,23.94-3.77-1.4-5.66-2.07-9.46-3.4,4.18-13.11,8.36-26.22,12.53-39.33,4.09,1.44,6.13,2.19,10.2,3.71-.67,1.96-1,2.94-1.67,4.9.08.03.12.05.21.08,3.79-1.94,9.75-3.16,17.67.09,7.3,3,10.84,7.39,11.13,12.52.08.04.12.05.2.09,5.2-2.01,11.75-2.6,19.6,1.19,10.36,5.01,13.33,12.25,9.53,20.1Z"/><path d="m997.68,248.8c5.03-9.7,19.13-4.06,26.31-.8,7.8,3.54,13,5.69,15.02,2.28,1.5-2.52.71-6.01-6.42-10.36-8.47-5.16-12.16-4.63-15.19-.12-3.8-2.19-5.71-3.26-9.54-5.36,6.79-10.92,20.29-3.82,28.22.26,7.88,4.05,16.64,13.79,10.63,23.34-3.91,6.3-5.87,9.45-9.78,15.75-1.55,2.49-1.9,4.06-.23,5.17.26.18.53.35,1.1.64-1.01,1.61-1.52,2.41-2.54,4.02-1.65-.72-3.21-1.57-4.61-2.49-4.28-2.81-5.81-5.54-3.99-9.83-.07-.05-.11-.07-.18-.11-5.09,1.75-11.51.82-18.95-3.51-9.15-5.33-13.01-12.77-9.85-18.86Zm34.04,13.77c1.18-1.99,1.78-2.99,2.96-4.98-2.08.09-6.59-1.7-11.79-3.84-9-3.72-13.51-3.94-15.49-.21-1.79,3.38-.37,6.52,5.15,9.78,7.97,4.7,15.57,5.33,19.18-.75Z"/><path d="m1067.88,248.45c1.83-2.81,2.75-4.21,4.58-7.02,4.23,2.97,6.33,4.49,10.51,7.57-1.89,2.76-2.84,4.14-4.73,6.89-4.11-3.03-6.19-4.52-10.36-7.45Zm-25.48,40.13c7.37-11.24,14.73-22.48,22.1-33.72,3.63,2.55,5.44,3.85,9.03,6.48-7.58,11.07-15.16,22.14-22.73,33.21-3.34-2.42-5.02-3.62-8.4-5.97Z"/><path d="m1060.1,301.48c10.95-15.24,21.9-30.48,32.85-45.72,3.64,2.81,5.45,4.24,9.04,7.13-11.24,14.99-22.48,29.97-33.72,44.96-3.25-2.58-4.89-3.86-8.18-6.37Z"/><path d="m1076.52,314.53c2.11-2.69,3.16-4.04,5.27-6.73,3.62,3.01,5.42,4.54,8.99,7.65-2.17,2.64-3.25,3.96-5.41,6.6-3.51-3.05-5.28-4.55-8.85-7.51Z"/><path d="m1102.94,310.95c8.94-10.68,25.94-5.23,34.67,3.84,7.08,7.35,14.33,20.25,7.48,30.31-3.12-3.43-4.69-5.12-7.86-8.46,2.5-3.34,3.75-9.59-3.84-17.18-8.9-8.89-17.11-6.48-22.06-.85-4.95,5.63-6.45,13.87,2,22.25,7.28,7.23,12.92,6.07,16.47,3.27,3.12,3.27,4.66,4.93,7.72,8.28-9.41,6.78-21.62-.24-28.55-6.9-8.95-8.6-14.5-24.43-6.02-34.57Z"/><path d="m1145.06,353.18c10.49-9.96,27.2-1.44,34.83,8.95,7.71,10.5,13.81,27.94,1.89,36.93-11.3,8.52-25.6-.65-33.77-10.17-8.27-9.64-12.84-26.32-2.95-35.71Zm29.65,36.32c6.45-5.08,8.03-13.66.36-23.3-7.82-9.83-16.24-9.79-22.36-4.25-6.07,5.49-7.29,13.74.14,23.01,7.29,9.09,15.48,9.58,21.86,4.55Z"/><path d="m1236.94,477.67c-9.56,4.72-14.34,7.08-23.9,11.8-2.05-4.19-3.1-6.27-5.22-10.38,8.74-4.58,13.11-6.86,21.86-11.44,4.54-2.38,6.87-5.62,2.45-13.91-4.3-8.07-10.47-11.05-15.5-8.09-8.18,4.81-12.26,7.21-20.44,12.02-2.26-3.96-3.41-5.92-5.74-9.8,8.44-5.23,12.66-7.84,21.1-13.07,4.39-2.72,6.52-6.1,1.69-13.91-4.71-7.61-11-10.05-15.84-6.72-7.86,5.41-11.79,8.12-19.66,13.53-2.46-3.72-3.71-5.57-6.23-9.21,10.53-7.6,21.06-15.2,31.59-22.81,2.7,3.95,4.03,5.94,6.66,9.97-1.61,1.11-2.41,1.66-4.02,2.77.05.08.08.12.13.2,4.25,1.06,9.94,4.21,14.92,12.39,4.58,7.54,5.24,13.62,2.75,17.98.05.09.07.13.12.22,5.46,2.09,11.31,6.29,15.91,15.07,6.07,11.6,4.72,19.77-2.64,23.4Z"/></g><g><path d="m430.76,451.5c8.6,5.46,9.8,15.23,4.85,24.22-3.05,5.53-6.76,7.99-10.01,8.85-.03.06-.04.09-.07.14,1.37.71,2.05,1.07,3.42,1.78-1.42,2.8-2.12,4.21-3.5,7.06-13.1-6.47-26.21-12.93-39.31-19.4,1.56-3.17,2.35-4.74,3.97-7.86,5.76,2.99,8.64,4.49,14.4,7.49.03-.06.05-.09.08-.15-.85-3.16-.89-8.11,2.34-14.08,4.62-8.53,14.89-13.73,23.84-8.05Zm-4.34,7.18c-5.23-3.14-11.85-2.62-15.8,4.52-3.62,6.54-1.8,12.74,4.5,16.02,6.25,3.25,12.17,1.38,15.55-4.8,3.69-6.75.97-12.6-4.26-15.74Z"/><path d="m457.22,416.58c-6.42,8.02-12.56,16.44-18.21,25.02,4.37,2.76,10.46,2.16,14.98-4.18,4.02-5.65,2.87-9.88,1.66-11.69,1.87-2.48,2.82-3.7,4.74-6.12,3.34,5.33,3.08,12.51-2.55,20.78-5.41,7.93-15.76,12.84-24.62,7.11-9.42-6.08-7.59-18.45-1.99-26.34,5.41-7.63,15.98-12.84,24.31-6.04.65.53,1.37,1.1,1.7,1.46Zm-8.55,3.41c-3.85-2.95-9.51-1.58-13.66,4.21-3.91,5.46-3.84,11.51.12,14.78,5.23-7.83,7.94-11.63,13.54-18.99Z"/><path d="m464.59,416.78c-5.33-4.37-2.73-10.94,2.78-19.28,3.47-5.25,5.68-8.41,3.49-10.47-1.62-1.53-4.2-1.58-8.21,2.83-4.76,5.24-4.86,8.03-2,11.01-2.06,2.39-3.08,3.6-5.09,6.04-4.31-4.08-4.67-11.21,3.78-20.48,5.69-6.24,12.31-9.13,17.98-3.58,4.03,3.94,6.04,5.9,10.06,9.84,1.59,1.56,2.67,2.09,3.66,1.09.16-.16.31-.32.58-.67,1.02,1.02,1.54,1.52,2.56,2.54-.71,1.05-1.5,2.03-2.31,2.87-2.51,2.58-4.64,3.2-7.49,1.13-.04.04-.06.07-.1.11.64,3.98-.8,8.44-4.85,13.09-4.97,5.71-10.76,7.27-14.83,3.93Zm14.17-22.32c-1.28-1.21-1.92-1.81-3.2-3.01-.19,1.52-2.01,4.46-4.2,7.85-3.78,5.87-4.53,9.13-2.1,11.21,2.2,1.88,4.65,1.39,7.68-2.05,4.37-4.96,5.73-10.32,1.83-14Z"/><path d="m496.81,351.86c2.35-1.96,3.53-2.93,5.92-4.84,6.44,7.84,12.89,15.69,19.33,23.53-2.19,1.77-3.28,2.67-5.44,4.5-.99-1.16-1.49-1.75-2.49-2.91-.04.04-.07.06-.11.09.01,3.04-1.38,7.25-6.1,11.53-5.04,4.57-11.27,6.14-16.18,1.12-5.93-6.06-8.89-9.1-14.82-15.16,2.23-2.15,3.36-3.22,5.63-5.32,5.36,5.7,8.04,8.55,13.39,14.25,2.83,3.02,6.32,3.49,10.37-.13,4.59-4.1,5.65-8.93,2.66-12.43-4.86-5.69-7.29-8.54-12.16-14.23Z"/><path d="m548.5,333.25c5.39,8.36,2.67,17.04-4.93,22.27-4.68,3.22-8.76,3.58-11.86,2.83-.05.03-.07.05-.12.09,3.45,4.56,5.17,6.84,8.62,11.4-2.19,1.62-3.27,2.44-5.43,4.12-8.44-10.73-16.88-21.46-25.32-32.2,2.42-1.85,3.63-2.76,6.08-4.55.86,1.14,1.29,1.71,2.15,2.85.05-.04.07-.05.12-.09.44-2.98,2.13-7.09,7.23-10.57,8.29-5.66,18.06-4.51,23.45,3.85Zm-6.42,4.07c-3.31-4.92-9.19-7.4-15.22-3.25-5.53,3.81-6.27,9.7-2.1,15.21,4.13,5.46,9.87,6.58,15.08,2.97,5.68-3.94,5.55-10.02,2.24-14.94Z"/><path d="m542.58,312.9c-1.33-2.13-1.99-3.19-3.32-5.32,3.01-1.78,4.52-2.65,7.56-4.36,1.28,2.15,1.92,3.23,3.2,5.38-2.99,1.68-4.48,2.54-7.44,4.3Zm19.17,29.95c-5.31-8.54-10.62-17.08-15.92-25.62,2.58-1.53,3.88-2.28,6.48-3.75,5.14,8.62,10.28,17.25,15.42,25.87-2.4,1.37-3.59,2.07-5.97,3.49Z"/><path d="m593.41,303.36c3.47,7.53,5.21,11.3,8.68,18.83-2.51,1.09-3.77,1.64-6.26,2.78-3.34-6.91-5.02-10.36-8.36-17.26-1.74-3.59-4.98-5.13-9.99-2.74-5.69,2.71-7.86,7.23-5.7,11.21,3.52,6.48,5.28,9.72,8.79,16.2-2.45,1.26-3.66,1.91-6.09,3.22-4.95-8.72-9.89-17.43-14.84-26.15,2.63-1.41,3.95-2.1,6.6-3.46.72,1.32,1.08,1.99,1.8,3.31.05-.03.08-.04.13-.07.71-2.94,3.21-6.87,9.26-9.7,6.47-3.03,13.1-2.39,15.97,3.83Z"/><path d="m635.33,295.86c-9,2.67-17.99,5.76-26.73,9.19,2.06,4.52,7.11,7.45,13.8,5.08,5.97-2.12,7.17-6.01,7.12-8.07,2.71-.88,4.07-1.31,6.8-2.13-.03,5.95-3.6,11.48-12.37,14.6-10.6,3.77-19.08.14-22.77-8.2-3.79-8.56.3-17.3,11.41-21.2,11.04-3.88,19.23-.02,22.13,8.68.26.77.53,1.6.61,2.06Zm-8.45-2.05c-1.56-4.38-6.71-6.42-12.83-4.27-5.77,2.03-8.69,6.68-7.2,11.36,7.94-3.07,11.95-4.49,20.03-7.1Z"/><path d="m658.84,298.51c.48,1.76.71,2.64,1.19,4.4-1.61.68-2.67,1-4.08,1.36-5.64,1.42-9.59.64-11.62-5.89-1.96-6.31-2.94-9.46-4.91-15.77-2.12.58-3.17.88-5.28,1.5-.58-1.79-.88-2.68-1.46-4.47,2.13-.62,3.2-.92,5.35-1.52-1.13-3.63-1.69-5.44-2.82-9.07,2.91-.8,4.36-1.18,7.28-1.92,1.06,3.64,1.59,5.47,2.65,9.11,2.85-.73,4.28-1.08,7.14-1.75.49,1.81.73,2.71,1.22,4.52-2.83.67-4.24,1.01-7.05,1.73,1.86,6.4,2.79,9.6,4.65,16,.87,3,2.08,3.39,4.94,2.68,1.16-.29,1.69-.47,2.8-.92Z"/><path d="m679.05,268.67c.42,2.12.62,3.18,1.04,5.29-.9.03-1.57.08-2.44.23-6.49,1.09-10.25,5.8-8.98,11.24,1.39,5.92,2.08,8.88,3.46,14.8-2.66.54-3.99.82-6.64,1.41-2.41-9.5-4.82-19.01-7.24-28.51,2.87-.63,4.31-.93,7.19-1.5.51,2.18.76,3.26,1.27,5.44.06-.01.09-.02.15-.03,1.12-3.98,3.58-7.1,8.68-7.97,1.33-.23,2.38-.34,3.51-.41Z"/><path d="m718.56,280.89c-9.31.56-18.7,1.52-27.94,2.85.97,4.78,5.2,8.7,12.21,7.92,6.25-.7,8.29-4.15,8.7-6.13,2.82-.24,4.24-.35,7.06-.53-1.37,5.68-6.07,10.17-15.26,11.21-11.1,1.25-18.48-4.11-20.17-12.9-1.74-9.02,4.16-16.45,15.78-17.71,11.55-1.25,18.62,4.24,19.48,13.2.08.79.16,1.64.13,2.1Zm-7.72-3.83c-.53-4.53-5.06-7.62-11.46-6.92-6.04.66-9.9,4.45-9.51,9.25,8.36-1.17,12.56-1.63,20.97-2.33Z"/><path d="m757.99,280.44c-9.31-.42-18.75-.46-28.06-.11.46,4.81,4.24,9.11,11.29,9.07,6.28-.04,8.68-3.23,9.3-5.13,2.83.06,4.25.1,7.08.21-1.96,5.45-7.12,9.39-16.35,9.45-11.17.08-17.92-5.98-18.67-14.82-.77-9.07,5.88-15.77,17.55-15.8,11.6-.03,18.05,6.13,17.96,15.04,0,.79-.02,1.64-.09,2.08Zm-7.27-4.58c-.04-4.52-4.22-8.04-10.65-8.02-6.07.02-10.3,3.35-10.43,8.13,8.43-.28,12.65-.3,21.08-.11Z"/><path d="m762.22,276.97c.37-14.96,18.36-23,32.28-20.55,13.25,2.32,28.73,11.4,26.41,26.5-1.52,9.89-9.39,12.02-15.19,11.01-4.42-.77-6.9-2.83-8.24-6.02-.06,0-.08-.01-.14-.02-2.07,2.4-5.31,3.73-10.18,3.14-6.47-.78-11.39-5.43-10.96-12.72.46-7.8,7.02-12.29,14.66-11.31,4.82.62,8.36,3.31,9.37,5.95.06,0,.09.01.15.02.5-1.62.75-2.43,1.25-4.05,2.48.39,3.72.59,6.2,1.03-1.73,5.38-2.57,8.08-4.23,13.49-1.14,3.6-.01,5.92,3.41,6.52,4.12.73,7.42-1.95,8.39-8.07,1.96-12.38-10.6-19.91-21.17-21.34-11.23-1.52-25.79,3.85-26.3,16.76-.47,11.77,10.88,19.26,21.65,20.5,3.98.46,8.08.71,12.29.04.55,1.49.82,2.24,1.36,3.73-4.52,1.16-9.27.82-14.07.34-13.25-1.31-27.28-11.22-26.94-24.97Zm35.91,2.45c.54-4.55-2.34-7.31-6.44-7.85-5.72-.75-9.02,2.65-9.38,7.51-.3,3.97,1.6,7.08,6.53,7.7,5.42.68,8.75-2.7,9.3-7.36Z"/><path d="m855.15,281.29c2.81.87,4.22,1.31,7.01,2.23-2.93,9.94-4.4,14.91-7.33,24.85-2.4,8.14-9.44,9.78-18.95,7.2-9.5-2.58-13.55-7.37-13.24-12.54,2.75.62,4.12.94,6.86,1.62.13,2.66,1.95,5.13,7.43,6.62,6.13,1.67,9.86.48,11.26-4.63.4-1.47.6-2.2,1.01-3.67-.05-.02-.08-.02-.14-.04-2.49,1.61-6.13,2.57-11.65,1.09-8.55-2.31-14.31-8.44-12.58-17.33,1.74-8.94,9.84-12.05,19.04-9.53,5.94,1.63,8.78,4.76,10.25,7.29.06.02.09.03.14.04.35-1.28.53-1.92.88-3.19Zm-3.5,12.49c1.63-5.96-1.24-10.12-7.54-11.86-6.87-1.9-10.97,1.25-12.09,6.45-1.12,5.21,1.13,9.82,7.67,11.61,5.99,1.64,10.33-.29,11.95-6.2Z"/><path d="m915.38,315.18c-3.35,6.93-5.02,10.4-8.37,17.33-2.45-1.27-3.68-1.89-6.15-3.1,2.97-6.47,4.46-9.71,7.43-16.18,1.55-3.36,1.66-6.15-3.42-8.56-4.94-2.35-9.15-1.15-10.75,2.75-2.59,6.33-3.89,9.5-6.48,15.83-2.51-1.11-3.77-1.65-6.3-2.71,2.58-6.68,3.88-10.02,6.46-16.69,1.34-3.47,1.3-6.26-3.89-8.35-5.06-2.03-9.18-.56-10.54,3.45-2.22,6.51-3.32,9.77-5.54,16.28-2.56-.95-3.85-1.41-6.43-2.31,2.84-8.91,5.68-17.82,8.52-26.74,2.78.98,4.17,1.49,6.93,2.52-.45,1.33-.68,2-1.13,3.33.06.02.08.03.14.05,2.58-1.32,6.63-2.15,12.01.06,4.97,2.04,7.37,5.02,7.57,8.51l.14.06c3.54-1.36,7.99-1.77,13.32.81,7.04,3.4,9.06,8.33,6.48,13.66Z"/><path d="m915.27,328.76c2.78-5.53,9.18-4.25,17.88-.54,5.48,2.33,8.84,3.87,10.21,1.55,1.02-1.72.48-4.09-4.37-7.05-5.76-3.51-8.27-3.14-10.33-.08-2.58-1.49-3.88-2.21-6.49-3.64,2.74-4.56,8.99-6.06,19.19.17,6.86,4.2,10.98,9.83,7.23,15.86-2.66,4.28-3.99,6.42-6.65,10.71-1.05,1.69-1.29,2.76-.16,3.52.18.12.36.24.75.43-.69,1.09-1.03,1.64-1.72,2.73-1.12-.49-2.18-1.07-3.14-1.69-2.91-1.91-3.95-3.76-2.71-6.68-.05-.03-.07-.05-.12-.08-3.46,1.19-7.82.56-12.88-2.39-6.22-3.62-8.82-8.61-6.7-12.82Zm23.14,9.36c.8-1.35,1.21-2.03,2.01-3.39-1.41.06-4.48-1.15-8.02-2.61-6.12-2.53-9.19-2.68-10.53-.14-1.22,2.3-.25,4.44,3.5,6.65,5.42,3.19,10.58,3.62,13.04-.51Z"/><path d="m962.99,328.52c1.25-1.91,1.87-2.86,3.12-4.77,2.88,2.02,4.31,3.05,7.14,5.15-1.29,1.87-1.93,2.81-3.22,4.69-2.8-2.06-4.21-3.07-7.04-5.06Zm-17.32,27.28c6.01-9.17,9.01-13.75,15.02-22.92,2.47,1.74,3.7,2.62,6.14,4.41-6.18,9.03-9.27,13.54-15.45,22.57-2.27-1.65-3.41-2.46-5.71-4.06Z"/><path d="m957.71,364.57c7.44-10.36,14.89-20.72,22.33-31.08,2.48,1.91,3.7,2.88,6.15,4.85-7.64,10.19-15.28,20.38-22.92,30.56-2.21-1.76-3.32-2.62-5.56-4.33Z"/><path d="m968.87,373.44c1.43-1.83,2.15-2.75,3.58-4.58,2.46,2.05,3.69,3.09,6.11,5.2-1.47,1.79-2.21,2.69-3.68,4.48-2.39-2.07-3.59-3.1-6.02-5.11Z"/><path d="m986.83,371.01c5.48-6.51,15.09-5.87,23.57,2.61,7.35,7.36,8.81,15.71,5.08,20.61-2.12-2.33-3.19-3.48-5.35-5.75,1.7-2.27,2.55-6.52-2.61-11.68-6.05-6.05-11.63-4.4-15-.58-3.36,3.82-4.38,9.43,1.36,15.13,4.95,4.91,8.78,4.12,11.2,2.23,2.12,2.22,3.17,3.35,5.25,5.63-4.79,3.89-12.59,2.06-19.41-4.69-7.91-7.84-9.57-17-4.09-23.5Z"/><path d="m1015.46,399.71c6.08-5.74,15.54-3.82,23.68,6.08,5.56,6.76,9.55,18.75,1.29,25.11-6.52,5.02-15.47,2.41-22.96-6.92-7.49-9.32-8.12-18.5-2.01-24.28Zm20.16,24.69c4.38-3.45,5.46-9.29.25-15.84-5.31-6.68-11.04-6.66-15.2-2.89-4.13,3.73-4.95,9.34.09,15.64,4.95,6.18,10.52,6.51,14.86,3.09Z"/><path d="m1077.92,484.35c-6.5,3.21-9.75,4.81-16.25,8.02-1.4-2.85-2.11-4.26-3.55-7.06,5.94-3.11,8.91-4.67,14.86-7.78,3.09-1.62,4.67-3.82,1.66-9.46-2.92-5.49-7.12-7.51-10.54-5.5-5.56,3.27-8.34,4.9-13.89,8.17-1.54-2.69-2.32-4.02-3.9-6.66,5.74-3.56,8.61-5.33,14.34-8.89,2.98-1.85,4.44-4.15,1.15-9.46-3.2-5.17-7.48-6.83-10.77-4.57-5.34,3.68-8.02,5.52-13.36,9.2-1.67-2.53-2.52-3.78-4.23-6.26,8.59-6.2,12.89-9.3,21.48-15.5,1.83,2.68,2.74,4.04,4.53,6.78-1.09.75-1.64,1.13-2.73,1.88.04.06.05.08.09.14,2.89.72,6.76,2.86,10.14,8.42,3.12,5.13,3.56,9.26,1.87,12.22.03.06.05.09.08.15,3.72,1.42,7.69,4.27,10.81,10.25,4.13,7.88,3.21,13.44-1.79,15.91Z"/></g></g><text class="cls-3" transform="translate(647.19 494.12)"><tspan class="cls-1" x="0" y="0">y</tspan><tspan x="17.47" y="0">eah</tspan><tspan class="cls-2" x="75.92" y="0">_</tspan><tspan x="96.3" y="0">soul</tspan></text></svg>